<?xml version="1.0" encoding="utf-8" standalone="no"?>
<!DOCTYPE svg PUBLIC "-//W3C//DTD SVG 1.1//EN"
  "http://www.w3.org/Graphics/SVG/1.1/DTD/svg11.dtd">
<svg xmlns:xlink="http://www.w3.org/1999/xlink" width="1050.405625pt" height="545.903433pt" viewBox="0 0 1050.405625 545.903433" xmlns="http://www.w3.org/2000/svg" version="1.1">
 <metadata>
  <rdf:RDF xmlns:dc="http://purl.org/dc/elements/1.1/" xmlns:cc="http://creativecommons.org/ns#" xmlns:rdf="http://www.w3.org/1999/02/22-rdf-syntax-ns#">
   <cc:Work>
    <dc:type rdf:resource="http://purl.org/dc/dcmitype/StillImage"/>
    <dc:date>2025-11-24T18:32:51.493866</dc:date>
    <dc:format>image/svg+xml</dc:format>
    <dc:creator>
     <cc:Agent>
      <dc:title>Matplotlib v3.10.7, https://matplotlib.org/</dc:title>
     </cc:Agent>
    </dc:creator>
   </cc:Work>
  </rdf:RDF>
 </metadata>
 <defs>
  <style type="text/css">*{stroke-linejoin: round; stroke-linecap: butt}</style>
 </defs>
 <g id="figure_1">
  <g id="patch_1">
   <path d="M 0 545.903433 
L 1050.405625 545.903433 
L 1050.405625 0 
L 0 0 
z
" style="fill: #ffffff"/>
  </g>
  <g id="axes_1">
   <g id="patch_2">
    <path d="M 97.865625 442.41706 
L 1043.205625 442.41706 
L 1043.205625 9.579755 
L 97.865625 9.579755 
z
" style="fill: #ffffff"/>
   </g>
   <g id="patch_3">
    <path d="M 140.835625 118.368801 
L 259.373556 118.368801 
L 259.373556 422.742637 
L 140.835625 422.742637 
z
" clip-path="url(#pdbb6b16343)" style="fill: #ea805d; opacity: 0.8"/>
   </g>
   <g id="patch_4">
    <path d="M 289.008039 118.368801 
L 407.54597 118.368801 
L 407.54597 319.631018 
L 289.008039 319.631018 
z
" clip-path="url(#pdbb6b16343)" style="fill: #ea805d; opacity: 0.8"/>
   </g>
   <g id="patch_5">
    <path d="M 437.180453 118.368801 
L 555.718384 118.368801 
L 555.718384 282.702368 
L 437.180453 282.702368 
z
" clip-path="url(#pdbb6b16343)" style="fill: #ea805d; opacity: 0.8"/>
   </g>
   <g id="patch_6">
    <path d="M 585.352866 118.368801 
L 703.890797 118.368801 
L 703.890797 29.254178 
L 585.352866 29.254178 
z
" clip-path="url(#pdbb6b16343)" style="fill: #95bb63; opacity: 0.8"/>
   </g>
   <g id="patch_7">
    <path d="M 733.52528 118.368801 
L 852.063211 118.368801 
L 852.063211 145.444287 
L 733.52528 145.444287 
z
" clip-path="url(#pdbb6b16343)" style="fill: #ea805d; opacity: 0.8"/>
   </g>
   <g id="patch_8">
    <path d="M 881.697694 118.368801 
L 1000.235625 118.368801 
L 1000.235625 143.030329 
L 881.697694 143.030329 
z
" clip-path="url(#pdbb6b16343)" style="fill: #ea805d; opacity: 0.8"/>
   </g>
   <g id="matplotlib.axis_1">
    <g id="xtick_1">
     <g id="line2d_1">
      <path d="M 200.104591 442.41706 
L 200.104591 9.579755 
" clip-path="url(#pdbb6b16343)" style="fill: none; stroke-dasharray: 2.96,1.28; stroke-dashoffset: 0; stroke: #b0b0b0; stroke-opacity: 0.6; stroke-width: 0.8"/>
     </g>
     <g id="line2d_2">
      <defs>
       <path id="m7e6c0ca8b4" d="M 0 0 
L 0 3.5 
" style="stroke: #000000; stroke-width: 0.8"/>
      </defs>
      <g>
       <use xlink:href="#m7e6c0ca8b4" x="200.104591" y="442.41706" style="stroke: #000000; stroke-width: 0.8"/>
      </g>
     </g>
     <g id="text_1">
      <!-- Pos 17 -->
      <g transform="translate(130.153168 511.322049) rotate(-45) scale(0.2 -0.2)">
       <defs>
        <path id="DejaVuSansMono-50" d="M 1247 4147 
L 1247 2394 
L 1978 2394 
Q 2416 2394 2661 2625 
Q 2906 2856 2906 3272 
Q 2906 3688 2662 3917 
Q 2419 4147 1978 4147 
L 1247 4147 
z
M 616 4666 
L 1978 4666 
Q 2759 4666 3162 4311 
Q 3566 3956 3566 3272 
Q 3566 2581 3164 2228 
Q 2763 1875 1978 1875 
L 1247 1875 
L 1247 0 
L 616 0 
L 616 4666 
z
" transform="scale(0.015625)"/>
        <path id="DejaVuSansMono-6f" d="M 1925 3097 
Q 1488 3097 1263 2756 
Q 1038 2416 1038 1747 
Q 1038 1081 1263 739 
Q 1488 397 1925 397 
Q 2366 397 2591 739 
Q 2816 1081 2816 1747 
Q 2816 2416 2591 2756 
Q 2366 3097 1925 3097 
z
M 1925 3584 
Q 2653 3584 3039 3112 
Q 3425 2641 3425 1747 
Q 3425 850 3040 379 
Q 2656 -91 1925 -91 
Q 1197 -91 812 379 
Q 428 850 428 1747 
Q 428 2641 812 3112 
Q 1197 3584 1925 3584 
z
" transform="scale(0.015625)"/>
        <path id="DejaVuSansMono-73" d="M 3041 3378 
L 3041 2816 
Q 2794 2959 2544 3031 
Q 2294 3103 2034 3103 
Q 1644 3103 1451 2976 
Q 1259 2850 1259 2591 
Q 1259 2356 1403 2240 
Q 1547 2125 2119 2016 
L 2350 1972 
Q 2778 1891 2998 1647 
Q 3219 1403 3219 1013 
Q 3219 494 2850 201 
Q 2481 -91 1825 -91 
Q 1566 -91 1281 -36 
Q 997 19 666 128 
L 666 722 
Q 988 556 1281 473 
Q 1575 391 1838 391 
Q 2219 391 2428 545 
Q 2638 700 2638 978 
Q 2638 1378 1872 1531 
L 1847 1538 
L 1631 1581 
Q 1134 1678 906 1908 
Q 678 2138 678 2534 
Q 678 3038 1018 3311 
Q 1359 3584 1991 3584 
Q 2272 3584 2531 3532 
Q 2791 3481 3041 3378 
z
" transform="scale(0.015625)"/>
        <path id="DejaVuSansMono-20" transform="scale(0.015625)"/>
        <path id="DejaVuSansMono-31" d="M 844 531 
L 1825 531 
L 1825 4097 
L 769 3859 
L 769 4434 
L 1819 4666 
L 2450 4666 
L 2450 531 
L 3419 531 
L 3419 0 
L 844 0 
L 844 531 
z
" transform="scale(0.015625)"/>
        <path id="DejaVuSansMono-37" d="M 434 4666 
L 3372 4666 
L 3372 4397 
L 1703 0 
L 1044 0 
L 2669 4134 
L 434 4134 
L 434 4666 
z
" transform="scale(0.015625)"/>
       </defs>
       <use xlink:href="#DejaVuSansMono-50"/>
       <use xlink:href="#DejaVuSansMono-6f" transform="translate(60.205078 0)"/>
       <use xlink:href="#DejaVuSansMono-73" transform="translate(120.410156 0)"/>
       <use xlink:href="#DejaVuSansMono-20" transform="translate(180.615234 0)"/>
       <use xlink:href="#DejaVuSansMono-31" transform="translate(240.820312 0)"/>
       <use xlink:href="#DejaVuSansMono-37" transform="translate(301.025391 0)"/>
      </g>
      <!-- (Q) -->
      <g transform="translate(171.621445 501.70628) rotate(-45) scale(0.2 -0.2)">
       <defs>
        <path id="DejaVuSansMono-28" d="M 2766 4856 
Q 2350 4144 2145 3436 
Q 1941 2728 1941 2009 
Q 1941 1294 2145 584 
Q 2350 -125 2766 -844 
L 2266 -844 
Q 1794 -100 1562 604 
Q 1331 1309 1331 2009 
Q 1331 2706 1562 3412 
Q 1794 4119 2266 4856 
L 2766 4856 
z
" transform="scale(0.015625)"/>
        <path id="DejaVuSansMono-51" d="M 2047 -84 
Q 2025 -84 1984 -87 
Q 1944 -91 1919 -91 
Q 1138 -91 752 509 
Q 366 1109 366 2328 
Q 366 3550 752 4150 
Q 1138 4750 1925 4750 
Q 2716 4750 3102 4150 
Q 3488 3550 3488 2328 
Q 3488 1409 3273 848 
Q 3059 288 2625 63 
L 3250 -531 
L 2778 -844 
L 2047 -84 
z
M 2828 2328 
Q 2828 3356 2617 3797 
Q 2406 4238 1925 4238 
Q 1447 4238 1236 3797 
Q 1025 3356 1025 2328 
Q 1025 1303 1236 862 
Q 1447 422 1925 422 
Q 2406 422 2617 861 
Q 2828 1300 2828 2328 
z
" transform="scale(0.015625)"/>
        <path id="DejaVuSansMono-29" d="M 1088 4856 
L 1588 4856 
Q 2059 4119 2290 3412 
Q 2522 2706 2522 2009 
Q 2522 1306 2290 600 
Q 2059 -106 1588 -844 
L 1088 -844 
Q 1503 -119 1708 590 
Q 1913 1300 1913 2009 
Q 1913 2722 1708 3431 
Q 1503 4141 1088 4856 
z
" transform="scale(0.015625)"/>
       </defs>
       <use xlink:href="#DejaVuSansMono-28"/>
       <use xlink:href="#DejaVuSansMono-51" transform="translate(60.205078 0)"/>
       <use xlink:href="#DejaVuSansMono-29" transform="translate(120.410156 0)"/>
      </g>
     </g>
    </g>
    <g id="xtick_2">
     <g id="line2d_3">
      <path d="M 348.277004 442.41706 
L 348.277004 9.579755 
" clip-path="url(#pdbb6b16343)" style="fill: none; stroke-dasharray: 2.96,1.28; stroke-dashoffset: 0; stroke: #b0b0b0; stroke-opacity: 0.6; stroke-width: 0.8"/>
     </g>
     <g id="line2d_4">
      <g>
       <use xlink:href="#m7e6c0ca8b4" x="348.277004" y="442.41706" style="stroke: #000000; stroke-width: 0.8"/>
      </g>
     </g>
     <g id="text_2">
      <!-- Pos 393 -->
      <g transform="translate(269.811575 519.836056) rotate(-45) scale(0.2 -0.2)">
       <defs>
        <path id="DejaVuSansMono-33" d="M 2425 2497 
Q 2884 2375 3128 2064 
Q 3372 1753 3372 1288 
Q 3372 644 2939 276 
Q 2506 -91 1741 -91 
Q 1419 -91 1084 -31 
Q 750 28 428 141 
L 428 769 
Q 747 603 1056 522 
Q 1366 441 1672 441 
Q 2191 441 2469 675 
Q 2747 909 2747 1350 
Q 2747 1756 2469 1995 
Q 2191 2234 1716 2234 
L 1234 2234 
L 1234 2753 
L 1716 2753 
Q 2150 2753 2394 2943 
Q 2638 3134 2638 3475 
Q 2638 3834 2411 4026 
Q 2184 4219 1766 4219 
Q 1488 4219 1191 4156 
Q 894 4094 569 3969 
L 569 4550 
Q 947 4650 1242 4700 
Q 1538 4750 1766 4750 
Q 2447 4750 2855 4408 
Q 3263 4066 3263 3500 
Q 3263 3116 3048 2859 
Q 2834 2603 2425 2497 
z
" transform="scale(0.015625)"/>
        <path id="DejaVuSansMono-39" d="M 1863 2069 
Q 2266 2069 2495 2359 
Q 2725 2650 2725 3163 
Q 2725 3675 2495 3965 
Q 2266 4256 1863 4256 
Q 1444 4256 1231 3979 
Q 1019 3703 1019 3163 
Q 1019 2619 1230 2344 
Q 1441 2069 1863 2069 
z
M 738 97 
L 738 678 
Q 934 563 1156 502 
Q 1378 441 1619 441 
Q 2219 441 2526 892 
Q 2834 1344 2834 2222 
Q 2688 1909 2422 1742 
Q 2156 1575 1813 1575 
Q 1138 1575 767 1990 
Q 397 2406 397 3169 
Q 397 3922 776 4336 
Q 1156 4750 1850 4750 
Q 2663 4750 3041 4165 
Q 3419 3581 3419 2328 
Q 3419 1150 2964 529 
Q 2509 -91 1644 -91 
Q 1416 -91 1184 -42 
Q 953 6 738 97 
z
" transform="scale(0.015625)"/>
       </defs>
       <use xlink:href="#DejaVuSansMono-50"/>
       <use xlink:href="#DejaVuSansMono-6f" transform="translate(60.205078 0)"/>
       <use xlink:href="#DejaVuSansMono-73" transform="translate(120.410156 0)"/>
       <use xlink:href="#DejaVuSansMono-20" transform="translate(180.615234 0)"/>
       <use xlink:href="#DejaVuSansMono-33" transform="translate(240.820312 0)"/>
       <use xlink:href="#DejaVuSansMono-39" transform="translate(301.025391 0)"/>
       <use xlink:href="#DejaVuSansMono-33" transform="translate(361.230469 0)"/>
      </g>
      <!-- (A) -->
      <g transform="translate(319.793859 501.70628) rotate(-45) scale(0.2 -0.2)">
       <defs>
        <path id="DejaVuSansMono-41" d="M 1925 4109 
L 1259 1722 
L 2591 1722 
L 1925 4109 
z
M 1544 4666 
L 2309 4666 
L 3738 0 
L 3084 0 
L 2741 1216 
L 1106 1216 
L 769 0 
L 116 0 
L 1544 4666 
z
" transform="scale(0.015625)"/>
       </defs>
       <use xlink:href="#DejaVuSansMono-28"/>
       <use xlink:href="#DejaVuSansMono-41" transform="translate(60.205078 0)"/>
       <use xlink:href="#DejaVuSansMono-29" transform="translate(120.410156 0)"/>
      </g>
     </g>
    </g>
    <g id="xtick_3">
     <g id="line2d_5">
      <path d="M 496.449418 442.41706 
L 496.449418 9.579755 
" clip-path="url(#pdbb6b16343)" style="fill: none; stroke-dasharray: 2.96,1.28; stroke-dashoffset: 0; stroke: #b0b0b0; stroke-opacity: 0.6; stroke-width: 0.8"/>
     </g>
     <g id="line2d_6">
      <g>
       <use xlink:href="#m7e6c0ca8b4" x="496.449418" y="442.41706" style="stroke: #000000; stroke-width: 0.8"/>
      </g>
     </g>
     <g id="text_3">
      <!-- Pos 149 -->
      <g transform="translate(417.983988 519.836056) rotate(-45) scale(0.2 -0.2)">
       <defs>
        <path id="DejaVuSansMono-34" d="M 2297 4091 
L 825 1625 
L 2297 1625 
L 2297 4091 
z
M 2194 4666 
L 2925 4666 
L 2925 1625 
L 3547 1625 
L 3547 1113 
L 2925 1113 
L 2925 0 
L 2297 0 
L 2297 1113 
L 319 1113 
L 319 1709 
L 2194 4666 
z
" transform="scale(0.015625)"/>
       </defs>
       <use xlink:href="#DejaVuSansMono-50"/>
       <use xlink:href="#DejaVuSansMono-6f" transform="translate(60.205078 0)"/>
       <use xlink:href="#DejaVuSansMono-73" transform="translate(120.410156 0)"/>
       <use xlink:href="#DejaVuSansMono-20" transform="translate(180.615234 0)"/>
       <use xlink:href="#DejaVuSansMono-31" transform="translate(240.820312 0)"/>
       <use xlink:href="#DejaVuSansMono-34" transform="translate(301.025391 0)"/>
       <use xlink:href="#DejaVuSansMono-39" transform="translate(361.230469 0)"/>
      </g>
      <!-- (K) -->
      <g transform="translate(467.966273 501.70628) rotate(-45) scale(0.2 -0.2)">
       <defs>
        <path id="DejaVuSansMono-4b" d="M 428 4666 
L 1063 4666 
L 1063 2591 
L 3034 4666 
L 3775 4666 
L 1959 2759 
L 3828 0 
L 3066 0 
L 1544 2338 
L 1063 1825 
L 1063 0 
L 428 0 
L 428 4666 
z
" transform="scale(0.015625)"/>
       </defs>
       <use xlink:href="#DejaVuSansMono-28"/>
       <use xlink:href="#DejaVuSansMono-4b" transform="translate(60.205078 0)"/>
       <use xlink:href="#DejaVuSansMono-29" transform="translate(120.410156 0)"/>
      </g>
     </g>
    </g>
    <g id="xtick_4">
     <g id="line2d_7">
      <path d="M 644.621832 442.41706 
L 644.621832 9.579755 
" clip-path="url(#pdbb6b16343)" style="fill: none; stroke-dasharray: 2.96,1.28; stroke-dashoffset: 0; stroke: #b0b0b0; stroke-opacity: 0.6; stroke-width: 0.8"/>
     </g>
     <g id="line2d_8">
      <g>
       <use xlink:href="#m7e6c0ca8b4" x="644.621832" y="442.41706" style="stroke: #000000; stroke-width: 0.8"/>
      </g>
     </g>
     <g id="text_4">
      <!-- Pos 238 -->
      <g transform="translate(566.156402 519.836056) rotate(-45) scale(0.2 -0.2)">
       <defs>
        <path id="DejaVuSansMono-32" d="M 1166 531 
L 3309 531 
L 3309 0 
L 475 0 
L 475 531 
Q 1059 1147 1496 1619 
Q 1934 2091 2100 2284 
Q 2413 2666 2522 2902 
Q 2631 3138 2631 3384 
Q 2631 3775 2401 3997 
Q 2172 4219 1772 4219 
Q 1488 4219 1175 4116 
Q 863 4013 513 3803 
L 513 4441 
Q 834 4594 1145 4672 
Q 1456 4750 1759 4750 
Q 2444 4750 2861 4386 
Q 3278 4022 3278 3431 
Q 3278 3131 3139 2831 
Q 3000 2531 2688 2169 
Q 2513 1966 2180 1606 
Q 1847 1247 1166 531 
z
" transform="scale(0.015625)"/>
        <path id="DejaVuSansMono-38" d="M 1925 2216 
Q 1503 2216 1273 1980 
Q 1044 1744 1044 1313 
Q 1044 881 1276 642 
Q 1509 403 1925 403 
Q 2350 403 2579 639 
Q 2809 875 2809 1313 
Q 2809 1741 2576 1978 
Q 2344 2216 1925 2216 
z
M 1375 2478 
Q 972 2581 745 2862 
Q 519 3144 519 3541 
Q 519 4097 897 4423 
Q 1275 4750 1925 4750 
Q 2578 4750 2956 4423 
Q 3334 4097 3334 3541 
Q 3334 3144 3107 2862 
Q 2881 2581 2478 2478 
Q 2947 2375 3195 2062 
Q 3444 1750 3444 1253 
Q 3444 622 3041 265 
Q 2638 -91 1925 -91 
Q 1213 -91 811 264 
Q 409 619 409 1247 
Q 409 1747 657 2061 
Q 906 2375 1375 2478 
z
M 1147 3481 
Q 1147 3106 1347 2909 
Q 1547 2713 1925 2713 
Q 2306 2713 2506 2909 
Q 2706 3106 2706 3481 
Q 2706 3863 2507 4063 
Q 2309 4263 1925 4263 
Q 1547 4263 1347 4061 
Q 1147 3859 1147 3481 
z
" transform="scale(0.015625)"/>
       </defs>
       <use xlink:href="#DejaVuSansMono-50"/>
       <use xlink:href="#DejaVuSansMono-6f" transform="translate(60.205078 0)"/>
       <use xlink:href="#DejaVuSansMono-73" transform="translate(120.410156 0)"/>
       <use xlink:href="#DejaVuSansMono-20" transform="translate(180.615234 0)"/>
       <use xlink:href="#DejaVuSansMono-32" transform="translate(240.820312 0)"/>
       <use xlink:href="#DejaVuSansMono-33" transform="translate(301.025391 0)"/>
       <use xlink:href="#DejaVuSansMono-38" transform="translate(361.230469 0)"/>
      </g>
      <!-- (D) -->
      <g transform="translate(616.138687 501.70628) rotate(-45) scale(0.2 -0.2)">
       <defs>
        <path id="DejaVuSansMono-44" d="M 1363 519 
Q 2159 519 2475 911 
Q 2791 1303 2791 2328 
Q 2791 3363 2477 3755 
Q 2163 4147 1363 4147 
L 1063 4147 
L 1063 519 
L 1363 519 
z
M 1375 4666 
Q 2444 4666 2950 4097 
Q 3456 3528 3456 2328 
Q 3456 1134 2950 567 
Q 2444 0 1375 0 
L 428 0 
L 428 4666 
L 1375 4666 
z
" transform="scale(0.015625)"/>
       </defs>
       <use xlink:href="#DejaVuSansMono-28"/>
       <use xlink:href="#DejaVuSansMono-44" transform="translate(60.205078 0)"/>
       <use xlink:href="#DejaVuSansMono-29" transform="translate(120.410156 0)"/>
      </g>
     </g>
    </g>
    <g id="xtick_5">
     <g id="line2d_9">
      <path d="M 792.794246 442.41706 
L 792.794246 9.579755 
" clip-path="url(#pdbb6b16343)" style="fill: none; stroke-dasharray: 2.96,1.28; stroke-dashoffset: 0; stroke: #b0b0b0; stroke-opacity: 0.6; stroke-width: 0.8"/>
     </g>
     <g id="line2d_10">
      <g>
       <use xlink:href="#m7e6c0ca8b4" x="792.794246" y="442.41706" style="stroke: #000000; stroke-width: 0.8"/>
      </g>
     </g>
     <g id="text_5">
      <!-- Pos 403 -->
      <g transform="translate(714.328816 519.836056) rotate(-45) scale(0.2 -0.2)">
       <defs>
        <path id="DejaVuSansMono-30" d="M 1509 2344 
Q 1509 2516 1629 2641 
Q 1750 2766 1919 2766 
Q 2094 2766 2219 2641 
Q 2344 2516 2344 2344 
Q 2344 2169 2220 2047 
Q 2097 1925 1919 1925 
Q 1744 1925 1626 2044 
Q 1509 2163 1509 2344 
z
M 1925 4250 
Q 1484 4250 1267 3775 
Q 1050 3300 1050 2328 
Q 1050 1359 1267 884 
Q 1484 409 1925 409 
Q 2369 409 2586 884 
Q 2803 1359 2803 2328 
Q 2803 3300 2586 3775 
Q 2369 4250 1925 4250 
z
M 1925 4750 
Q 2672 4750 3055 4137 
Q 3438 3525 3438 2328 
Q 3438 1134 3055 521 
Q 2672 -91 1925 -91 
Q 1178 -91 797 521 
Q 416 1134 416 2328 
Q 416 3525 797 4137 
Q 1178 4750 1925 4750 
z
" transform="scale(0.015625)"/>
       </defs>
       <use xlink:href="#DejaVuSansMono-50"/>
       <use xlink:href="#DejaVuSansMono-6f" transform="translate(60.205078 0)"/>
       <use xlink:href="#DejaVuSansMono-73" transform="translate(120.410156 0)"/>
       <use xlink:href="#DejaVuSansMono-20" transform="translate(180.615234 0)"/>
       <use xlink:href="#DejaVuSansMono-34" transform="translate(240.820312 0)"/>
       <use xlink:href="#DejaVuSansMono-30" transform="translate(301.025391 0)"/>
       <use xlink:href="#DejaVuSansMono-33" transform="translate(361.230469 0)"/>
      </g>
      <!-- (D) -->
      <g transform="translate(764.311101 501.70628) rotate(-45) scale(0.2 -0.2)">
       <use xlink:href="#DejaVuSansMono-28"/>
       <use xlink:href="#DejaVuSansMono-44" transform="translate(60.205078 0)"/>
       <use xlink:href="#DejaVuSansMono-29" transform="translate(120.410156 0)"/>
      </g>
     </g>
    </g>
    <g id="xtick_6">
     <g id="line2d_11">
      <path d="M 940.966659 442.41706 
L 940.966659 9.579755 
" clip-path="url(#pdbb6b16343)" style="fill: none; stroke-dasharray: 2.96,1.28; stroke-dashoffset: 0; stroke: #b0b0b0; stroke-opacity: 0.6; stroke-width: 0.8"/>
     </g>
     <g id="line2d_12">
      <g>
       <use xlink:href="#m7e6c0ca8b4" x="940.966659" y="442.41706" style="stroke: #000000; stroke-width: 0.8"/>
      </g>
     </g>
     <g id="text_6">
      <!-- Pos 38 -->
      <g transform="translate(871.015237 511.322049) rotate(-45) scale(0.2 -0.2)">
       <use xlink:href="#DejaVuSansMono-50"/>
       <use xlink:href="#DejaVuSansMono-6f" transform="translate(60.205078 0)"/>
       <use xlink:href="#DejaVuSansMono-73" transform="translate(120.410156 0)"/>
       <use xlink:href="#DejaVuSansMono-20" transform="translate(180.615234 0)"/>
       <use xlink:href="#DejaVuSansMono-33" transform="translate(240.820312 0)"/>
       <use xlink:href="#DejaVuSansMono-38" transform="translate(301.025391 0)"/>
      </g>
      <!-- (T) -->
      <g transform="translate(912.483514 501.70628) rotate(-45) scale(0.2 -0.2)">
       <defs>
        <path id="DejaVuSansMono-54" d="M 147 4666 
L 3706 4666 
L 3706 4134 
L 2247 4134 
L 2247 0 
L 1613 0 
L 1613 4134 
L 147 4134 
L 147 4666 
z
" transform="scale(0.015625)"/>
       </defs>
       <use xlink:href="#DejaVuSansMono-28"/>
       <use xlink:href="#DejaVuSansMono-54" transform="translate(60.205078 0)"/>
       <use xlink:href="#DejaVuSansMono-29" transform="translate(120.410156 0)"/>
      </g>
     </g>
    </g>
   </g>
   <g id="matplotlib.axis_2">
    <g id="ytick_1">
     <g id="line2d_13">
      <path d="M 97.865625 428.920516 
L 1043.205625 428.920516 
" clip-path="url(#pdbb6b16343)" style="fill: none; stroke-dasharray: 2.96,1.28; stroke-dashoffset: 0; stroke: #b0b0b0; stroke-opacity: 0.6; stroke-width: 0.8"/>
     </g>
     <g id="line2d_14">
      <defs>
       <path id="m5476b4c359" d="M 0 0 
L -3.5 0 
" style="stroke: #000000; stroke-width: 0.8"/>
      </defs>
      <g>
       <use xlink:href="#m5476b4c359" x="97.865625" y="428.920516" style="stroke: #000000; stroke-width: 0.8"/>
      </g>
     </g>
     <g id="text_7">
      <!-- −0.30 -->
      <g transform="translate(30.6625 436.572079) scale(0.2 -0.2)">
       <defs>
        <path id="DejaVuSansMono-2212" d="M 275 2272 
L 3578 2272 
L 3578 1741 
L 275 1741 
L 275 2272 
z
" transform="scale(0.015625)"/>
        <path id="DejaVuSansMono-2e" d="M 1528 953 
L 2316 953 
L 2316 0 
L 1528 0 
L 1528 953 
z
" transform="scale(0.015625)"/>
       </defs>
       <use xlink:href="#DejaVuSansMono-2212"/>
       <use xlink:href="#DejaVuSansMono-30" transform="translate(60.205078 0)"/>
       <use xlink:href="#DejaVuSansMono-2e" transform="translate(120.410156 0)"/>
       <use xlink:href="#DejaVuSansMono-33" transform="translate(180.615234 0)"/>
       <use xlink:href="#DejaVuSansMono-30" transform="translate(240.820312 0)"/>
      </g>
     </g>
    </g>
    <g id="ytick_2">
     <g id="line2d_15">
      <path d="M 97.865625 377.161897 
L 1043.205625 377.161897 
" clip-path="url(#pdbb6b16343)" style="fill: none; stroke-dasharray: 2.96,1.28; stroke-dashoffset: 0; stroke: #b0b0b0; stroke-opacity: 0.6; stroke-width: 0.8"/>
     </g>
     <g id="line2d_16">
      <g>
       <use xlink:href="#m5476b4c359" x="97.865625" y="377.161897" style="stroke: #000000; stroke-width: 0.8"/>
      </g>
     </g>
     <g id="text_8">
      <!-- −0.25 -->
      <g transform="translate(30.6625 384.813459) scale(0.2 -0.2)">
       <defs>
        <path id="DejaVuSansMono-35" d="M 647 4666 
L 3009 4666 
L 3009 4134 
L 1222 4134 
L 1222 2988 
Q 1356 3038 1492 3061 
Q 1628 3084 1766 3084 
Q 2491 3084 2916 2656 
Q 3341 2228 3341 1497 
Q 3341 759 2895 334 
Q 2450 -91 1678 -91 
Q 1306 -91 998 -41 
Q 691 9 447 109 
L 447 750 
Q 734 594 1025 517 
Q 1316 441 1619 441 
Q 2141 441 2423 716 
Q 2706 991 2706 1497 
Q 2706 1997 2414 2275 
Q 2122 2553 1600 2553 
Q 1347 2553 1106 2495 
Q 866 2438 647 2322 
L 647 4666 
z
" transform="scale(0.015625)"/>
       </defs>
       <use xlink:href="#DejaVuSansMono-2212"/>
       <use xlink:href="#DejaVuSansMono-30" transform="translate(60.205078 0)"/>
       <use xlink:href="#DejaVuSansMono-2e" transform="translate(120.410156 0)"/>
       <use xlink:href="#DejaVuSansMono-32" transform="translate(180.615234 0)"/>
       <use xlink:href="#DejaVuSansMono-35" transform="translate(240.820312 0)"/>
      </g>
     </g>
    </g>
    <g id="ytick_3">
     <g id="line2d_17">
      <path d="M 97.865625 325.403278 
L 1043.205625 325.403278 
" clip-path="url(#pdbb6b16343)" style="fill: none; stroke-dasharray: 2.96,1.28; stroke-dashoffset: 0; stroke: #b0b0b0; stroke-opacity: 0.6; stroke-width: 0.8"/>
     </g>
     <g id="line2d_18">
      <g>
       <use xlink:href="#m5476b4c359" x="97.865625" y="325.403278" style="stroke: #000000; stroke-width: 0.8"/>
      </g>
     </g>
     <g id="text_9">
      <!-- −0.20 -->
      <g transform="translate(30.6625 333.05484) scale(0.2 -0.2)">
       <use xlink:href="#DejaVuSansMono-2212"/>
       <use xlink:href="#DejaVuSansMono-30" transform="translate(60.205078 0)"/>
       <use xlink:href="#DejaVuSansMono-2e" transform="translate(120.410156 0)"/>
       <use xlink:href="#DejaVuSansMono-32" transform="translate(180.615234 0)"/>
       <use xlink:href="#DejaVuSansMono-30" transform="translate(240.820312 0)"/>
      </g>
     </g>
    </g>
    <g id="ytick_4">
     <g id="line2d_19">
      <path d="M 97.865625 273.644659 
L 1043.205625 273.644659 
" clip-path="url(#pdbb6b16343)" style="fill: none; stroke-dasharray: 2.96,1.28; stroke-dashoffset: 0; stroke: #b0b0b0; stroke-opacity: 0.6; stroke-width: 0.8"/>
     </g>
     <g id="line2d_20">
      <g>
       <use xlink:href="#m5476b4c359" x="97.865625" y="273.644659" style="stroke: #000000; stroke-width: 0.8"/>
      </g>
     </g>
     <g id="text_10">
      <!-- −0.15 -->
      <g transform="translate(30.6625 281.296221) scale(0.2 -0.2)">
       <use xlink:href="#DejaVuSansMono-2212"/>
       <use xlink:href="#DejaVuSansMono-30" transform="translate(60.205078 0)"/>
       <use xlink:href="#DejaVuSansMono-2e" transform="translate(120.410156 0)"/>
       <use xlink:href="#DejaVuSansMono-31" transform="translate(180.615234 0)"/>
       <use xlink:href="#DejaVuSansMono-35" transform="translate(240.820312 0)"/>
      </g>
     </g>
    </g>
    <g id="ytick_5">
     <g id="line2d_21">
      <path d="M 97.865625 221.886039 
L 1043.205625 221.886039 
" clip-path="url(#pdbb6b16343)" style="fill: none; stroke-dasharray: 2.96,1.28; stroke-dashoffset: 0; stroke: #b0b0b0; stroke-opacity: 0.6; stroke-width: 0.8"/>
     </g>
     <g id="line2d_22">
      <g>
       <use xlink:href="#m5476b4c359" x="97.865625" y="221.886039" style="stroke: #000000; stroke-width: 0.8"/>
      </g>
     </g>
     <g id="text_11">
      <!-- −0.10 -->
      <g transform="translate(30.6625 229.537602) scale(0.2 -0.2)">
       <use xlink:href="#DejaVuSansMono-2212"/>
       <use xlink:href="#DejaVuSansMono-30" transform="translate(60.205078 0)"/>
       <use xlink:href="#DejaVuSansMono-2e" transform="translate(120.410156 0)"/>
       <use xlink:href="#DejaVuSansMono-31" transform="translate(180.615234 0)"/>
       <use xlink:href="#DejaVuSansMono-30" transform="translate(240.820312 0)"/>
      </g>
     </g>
    </g>
    <g id="ytick_6">
     <g id="line2d_23">
      <path d="M 97.865625 170.12742 
L 1043.205625 170.12742 
" clip-path="url(#pdbb6b16343)" style="fill: none; stroke-dasharray: 2.96,1.28; stroke-dashoffset: 0; stroke: #b0b0b0; stroke-opacity: 0.6; stroke-width: 0.8"/>
     </g>
     <g id="line2d_24">
      <g>
       <use xlink:href="#m5476b4c359" x="97.865625" y="170.12742" style="stroke: #000000; stroke-width: 0.8"/>
      </g>
     </g>
     <g id="text_12">
      <!-- −0.05 -->
      <g transform="translate(30.6625 177.778983) scale(0.2 -0.2)">
       <use xlink:href="#DejaVuSansMono-2212"/>
       <use xlink:href="#DejaVuSansMono-30" transform="translate(60.205078 0)"/>
       <use xlink:href="#DejaVuSansMono-2e" transform="translate(120.410156 0)"/>
       <use xlink:href="#DejaVuSansMono-30" transform="translate(180.615234 0)"/>
       <use xlink:href="#DejaVuSansMono-35" transform="translate(240.820312 0)"/>
      </g>
     </g>
    </g>
    <g id="ytick_7">
     <g id="line2d_25">
      <path d="M 97.865625 118.368801 
L 1043.205625 118.368801 
" clip-path="url(#pdbb6b16343)" style="fill: none; stroke-dasharray: 2.96,1.28; stroke-dashoffset: 0; stroke: #b0b0b0; stroke-opacity: 0.6; stroke-width: 0.8"/>
     </g>
     <g id="line2d_26">
      <g>
       <use xlink:href="#m5476b4c359" x="97.865625" y="118.368801" style="stroke: #000000; stroke-width: 0.8"/>
      </g>
     </g>
     <g id="text_13">
      <!-- 0.00 -->
      <g transform="translate(42.703125 126.020363) scale(0.2 -0.2)">
       <use xlink:href="#DejaVuSansMono-30"/>
       <use xlink:href="#DejaVuSansMono-2e" transform="translate(60.205078 0)"/>
       <use xlink:href="#DejaVuSansMono-30" transform="translate(120.410156 0)"/>
       <use xlink:href="#DejaVuSansMono-30" transform="translate(180.615234 0)"/>
      </g>
     </g>
    </g>
    <g id="ytick_8">
     <g id="line2d_27">
      <path d="M 97.865625 66.610182 
L 1043.205625 66.610182 
" clip-path="url(#pdbb6b16343)" style="fill: none; stroke-dasharray: 2.96,1.28; stroke-dashoffset: 0; stroke: #b0b0b0; stroke-opacity: 0.6; stroke-width: 0.8"/>
     </g>
     <g id="line2d_28">
      <g>
       <use xlink:href="#m5476b4c359" x="97.865625" y="66.610182" style="stroke: #000000; stroke-width: 0.8"/>
      </g>
     </g>
     <g id="text_14">
      <!-- 0.05 -->
      <g transform="translate(42.703125 74.261744) scale(0.2 -0.2)">
       <use xlink:href="#DejaVuSansMono-30"/>
       <use xlink:href="#DejaVuSansMono-2e" transform="translate(60.205078 0)"/>
       <use xlink:href="#DejaVuSansMono-30" transform="translate(120.410156 0)"/>
       <use xlink:href="#DejaVuSansMono-35" transform="translate(180.615234 0)"/>
      </g>
     </g>
    </g>
    <g id="ytick_9">
     <g id="line2d_29">
      <path d="M 97.865625 14.851562 
L 1043.205625 14.851562 
" clip-path="url(#pdbb6b16343)" style="fill: none; stroke-dasharray: 2.96,1.28; stroke-dashoffset: 0; stroke: #b0b0b0; stroke-opacity: 0.6; stroke-width: 0.8"/>
     </g>
     <g id="line2d_30">
      <g>
       <use xlink:href="#m5476b4c359" x="97.865625" y="14.851562" style="stroke: #000000; stroke-width: 0.8"/>
      </g>
     </g>
     <g id="text_15">
      <!-- 0.10 -->
      <g transform="translate(42.703125 22.503125) scale(0.2 -0.2)">
       <use xlink:href="#DejaVuSansMono-30"/>
       <use xlink:href="#DejaVuSansMono-2e" transform="translate(60.205078 0)"/>
       <use xlink:href="#DejaVuSansMono-31" transform="translate(120.410156 0)"/>
       <use xlink:href="#DejaVuSansMono-30" transform="translate(180.615234 0)"/>
      </g>
     </g>
    </g>
    <g id="text_16">
     <!-- SHAP Value -->
     <g transform="translate(22.503125 286.201532) rotate(-90) scale(0.2 -0.2)">
      <defs>
       <path id="DejaVuSansMono-53" d="M 3163 4506 
L 3163 3866 
Q 2875 4050 2586 4144 
Q 2297 4238 2003 4238 
Q 1556 4238 1297 4030 
Q 1038 3822 1038 3469 
Q 1038 3159 1208 2996 
Q 1378 2834 1844 2725 
L 2175 2650 
Q 2831 2497 3131 2169 
Q 3431 1841 3431 1275 
Q 3431 609 3018 259 
Q 2606 -91 1819 -91 
Q 1491 -91 1159 -20 
Q 828 50 494 191 
L 494 863 
Q 853 634 1173 528 
Q 1494 422 1819 422 
Q 2297 422 2562 636 
Q 2828 850 2828 1234 
Q 2828 1584 2645 1768 
Q 2463 1953 2009 2053 
L 1672 2131 
Q 1022 2278 728 2575 
Q 434 2872 434 3372 
Q 434 3997 854 4373 
Q 1275 4750 1972 4750 
Q 2241 4750 2537 4689 
Q 2834 4628 3163 4506 
z
" transform="scale(0.015625)"/>
       <path id="DejaVuSansMono-48" d="M 428 4666 
L 1063 4666 
L 1063 2753 
L 2791 2753 
L 2791 4666 
L 3425 4666 
L 3425 0 
L 2791 0 
L 2791 2222 
L 1063 2222 
L 1063 0 
L 428 0 
L 428 4666 
z
" transform="scale(0.015625)"/>
       <path id="DejaVuSansMono-56" d="M 1925 531 
L 3022 4666 
L 3675 4666 
L 2309 0 
L 1544 0 
L 178 4666 
L 831 4666 
L 1925 531 
z
" transform="scale(0.015625)"/>
       <path id="DejaVuSansMono-61" d="M 2194 1759 
L 2003 1759 
Q 1500 1759 1245 1582 
Q 991 1406 991 1056 
Q 991 741 1181 566 
Q 1372 391 1709 391 
Q 2184 391 2456 720 
Q 2728 1050 2731 1631 
L 2731 1759 
L 2194 1759 
z
M 3309 1997 
L 3309 0 
L 2731 0 
L 2731 519 
Q 2547 206 2267 57 
Q 1988 -91 1588 -91 
Q 1053 -91 734 211 
Q 416 513 416 1019 
Q 416 1603 808 1906 
Q 1200 2209 1959 2209 
L 2731 2209 
L 2731 2300 
Q 2728 2719 2518 2908 
Q 2309 3097 1850 3097 
Q 1556 3097 1256 3012 
Q 956 2928 672 2766 
L 672 3341 
Q 991 3463 1283 3523 
Q 1575 3584 1850 3584 
Q 2284 3584 2592 3456 
Q 2900 3328 3091 3072 
Q 3209 2916 3259 2686 
Q 3309 2456 3309 1997 
z
" transform="scale(0.015625)"/>
       <path id="DejaVuSansMono-6c" d="M 1997 1269 
Q 1997 881 2139 684 
Q 2281 488 2559 488 
L 3231 488 
L 3231 0 
L 2503 0 
Q 1988 0 1705 331 
Q 1422 663 1422 1269 
L 1422 4447 
L 500 4447 
L 500 4897 
L 1997 4897 
L 1997 1269 
z
" transform="scale(0.015625)"/>
       <path id="DejaVuSansMono-75" d="M 609 1325 
L 609 3494 
L 1184 3494 
L 1184 1325 
Q 1184 853 1351 631 
Q 1519 409 1869 409 
Q 2275 409 2490 695 
Q 2706 981 2706 1516 
L 2706 3494 
L 3284 3494 
L 3284 0 
L 2706 0 
L 2706 525 
Q 2553 222 2289 65 
Q 2025 -91 1672 -91 
Q 1134 -91 871 261 
Q 609 613 609 1325 
z
" transform="scale(0.015625)"/>
       <path id="DejaVuSansMono-65" d="M 3475 1894 
L 3475 1613 
L 984 1613 
L 984 1594 
Q 984 1022 1282 709 
Q 1581 397 2125 397 
Q 2400 397 2700 484 
Q 3000 572 3341 750 
L 3341 178 
Q 3013 44 2708 -23 
Q 2403 -91 2119 -91 
Q 1303 -91 843 398 
Q 384 888 384 1747 
Q 384 2584 834 3084 
Q 1284 3584 2034 3584 
Q 2703 3584 3089 3131 
Q 3475 2678 3475 1894 
z
M 2900 2063 
Q 2888 2569 2661 2833 
Q 2434 3097 2009 3097 
Q 1594 3097 1325 2822 
Q 1056 2547 1006 2059 
L 2900 2063 
z
" transform="scale(0.015625)"/>
      </defs>
      <use xlink:href="#DejaVuSansMono-53"/>
      <use xlink:href="#DejaVuSansMono-48" transform="translate(60.205078 0)"/>
      <use xlink:href="#DejaVuSansMono-41" transform="translate(120.410156 0)"/>
      <use xlink:href="#DejaVuSansMono-50" transform="translate(180.615234 0)"/>
      <use xlink:href="#DejaVuSansMono-20" transform="translate(240.820312 0)"/>
      <use xlink:href="#DejaVuSansMono-56" transform="translate(301.025391 0)"/>
      <use xlink:href="#DejaVuSansMono-61" transform="translate(361.230469 0)"/>
      <use xlink:href="#DejaVuSansMono-6c" transform="translate(421.435547 0)"/>
      <use xlink:href="#DejaVuSansMono-75" transform="translate(481.640625 0)"/>
      <use xlink:href="#DejaVuSansMono-65" transform="translate(541.845703 0)"/>
     </g>
    </g>
   </g>
   <g id="line2d_31">
    <path d="M 97.865625 118.368801 
L 1043.205625 118.368801 
" clip-path="url(#pdbb6b16343)" style="fill: none; stroke-dasharray: 5.55,2.4; stroke-dashoffset: 0; stroke: #000000; stroke-opacity: 0.5; stroke-width: 1.5"/>
   </g>
   <g id="patch_9">
    <path d="M 97.865625 442.41706 
L 97.865625 9.579755 
" style="fill: none; stroke: #000000; stroke-width: 0.8; stroke-linejoin: miter; stroke-linecap: square"/>
   </g>
   <g id="patch_10">
    <path d="M 1043.205625 442.41706 
L 1043.205625 9.579755 
" style="fill: none; stroke: #000000; stroke-width: 0.8; stroke-linejoin: miter; stroke-linecap: square"/>
   </g>
   <g id="patch_11">
    <path d="M 97.865625 442.41706 
L 1043.205625 442.41706 
" style="fill: none; stroke: #000000; stroke-width: 0.8; stroke-linejoin: miter; stroke-linecap: square"/>
   </g>
   <g id="patch_12">
    <path d="M 97.865625 9.579755 
L 1043.205625 9.579755 
" style="fill: none; stroke: #000000; stroke-width: 0.8; stroke-linejoin: miter; stroke-linecap: square"/>
   </g>
  </g>
 </g>
 <defs>
  <clipPath id="pdbb6b16343">
   <rect x="97.865625" y="9.579755" width="945.34" height="432.837305"/>
  </clipPath>
 </defs>
</svg>
