<?xml version="1.0" encoding="utf-8" standalone="no"?>
<!DOCTYPE svg PUBLIC "-//W3C//DTD SVG 1.1//EN"
  "http://www.w3.org/Graphics/SVG/1.1/DTD/svg11.dtd">
<svg xmlns:xlink="http://www.w3.org/1999/xlink" width="973.784375pt" height="691.885pt" viewBox="0 0 973.784375 691.885" xmlns="http://www.w3.org/2000/svg" version="1.1">
 <metadata>
  <rdf:RDF xmlns:dc="http://purl.org/dc/elements/1.1/" xmlns:cc="http://creativecommons.org/ns#" xmlns:rdf="http://www.w3.org/1999/02/22-rdf-syntax-ns#">
   <cc:Work>
    <dc:type rdf:resource="http://purl.org/dc/dcmitype/StillImage"/>
    <dc:date>2025-11-27T14:15:49.180378</dc:date>
    <dc:format>image/svg+xml</dc:format>
    <dc:creator>
     <cc:Agent>
      <dc:title>Matplotlib v3.10.7, https://matplotlib.org/</dc:title>
     </cc:Agent>
    </dc:creator>
   </cc:Work>
  </rdf:RDF>
 </metadata>
 <defs>
  <style type="text/css">*{stroke-linejoin: round; stroke-linecap: butt}</style>
 </defs>
 <g id="figure_1">
  <g id="patch_1">
   <path d="M 0 691.885 
L 973.784375 691.885 
L 973.784375 0 
L 0 0 
z
" style="fill: #ffffff"/>
  </g>
  <g id="axes_1">
   <g id="patch_2">
    <path d="M 73.784375 634.76 
L 966.584375 634.76 
L 966.584375 80.36 
L 73.784375 80.36 
z
" style="fill: #ffffff"/>
   </g>
   <g id="matplotlib.axis_1">
    <g id="xtick_1">
     <g id="line2d_1">
      <path d="M 112.447431 634.76 
L 112.447431 80.36 
" clip-path="url(#p246195d251)" style="fill: none; stroke: #b0b0b0; stroke-opacity: 0.25; stroke-width: 0.75; stroke-linecap: square"/>
     </g>
     <g id="line2d_2">
      <defs>
       <path id="me528a2085e" d="M 0 0 
L 0 3.5 
" style="stroke: #000000; stroke-width: 0.8"/>
      </defs>
      <g>
       <use xlink:href="#me528a2085e" x="112.447431" y="634.76" style="stroke: #000000; stroke-width: 0.8"/>
      </g>
     </g>
     <g id="text_1">
      <!-- 0.0 -->
      <g transform="translate(94.386494 657.063125) scale(0.2 -0.2)">
       <defs>
        <path id="DejaVuSansMono-30" d="M 1509 2344 
Q 1509 2516 1629 2641 
Q 1750 2766 1919 2766 
Q 2094 2766 2219 2641 
Q 2344 2516 2344 2344 
Q 2344 2169 2220 2047 
Q 2097 1925 1919 1925 
Q 1744 1925 1626 2044 
Q 1509 2163 1509 2344 
z
M 1925 4250 
Q 1484 4250 1267 3775 
Q 1050 3300 1050 2328 
Q 1050 1359 1267 884 
Q 1484 409 1925 409 
Q 2369 409 2586 884 
Q 2803 1359 2803 2328 
Q 2803 3300 2586 3775 
Q 2369 4250 1925 4250 
z
M 1925 4750 
Q 2672 4750 3055 4137 
Q 3438 3525 3438 2328 
Q 3438 1134 3055 521 
Q 2672 -91 1925 -91 
Q 1178 -91 797 521 
Q 416 1134 416 2328 
Q 416 3525 797 4137 
Q 1178 4750 1925 4750 
z
" transform="scale(0.015625)"/>
        <path id="DejaVuSansMono-2e" d="M 1528 953 
L 2316 953 
L 2316 0 
L 1528 0 
L 1528 953 
z
" transform="scale(0.015625)"/>
       </defs>
       <use xlink:href="#DejaVuSansMono-30"/>
       <use xlink:href="#DejaVuSansMono-2e" transform="translate(60.205078 0)"/>
       <use xlink:href="#DejaVuSansMono-30" transform="translate(120.410156 0)"/>
      </g>
     </g>
    </g>
    <g id="xtick_2">
     <g id="line2d_3">
      <path d="M 275.158456 634.76 
L 275.158456 80.36 
" clip-path="url(#p246195d251)" style="fill: none; stroke: #b0b0b0; stroke-opacity: 0.25; stroke-width: 0.75; stroke-linecap: square"/>
     </g>
     <g id="line2d_4">
      <g>
       <use xlink:href="#me528a2085e" x="275.158456" y="634.76" style="stroke: #000000; stroke-width: 0.8"/>
      </g>
     </g>
     <g id="text_2">
      <!-- 0.2 -->
      <g transform="translate(257.097519 657.063125) scale(0.2 -0.2)">
       <defs>
        <path id="DejaVuSansMono-32" d="M 1166 531 
L 3309 531 
L 3309 0 
L 475 0 
L 475 531 
Q 1059 1147 1496 1619 
Q 1934 2091 2100 2284 
Q 2413 2666 2522 2902 
Q 2631 3138 2631 3384 
Q 2631 3775 2401 3997 
Q 2172 4219 1772 4219 
Q 1488 4219 1175 4116 
Q 863 4013 513 3803 
L 513 4441 
Q 834 4594 1145 4672 
Q 1456 4750 1759 4750 
Q 2444 4750 2861 4386 
Q 3278 4022 3278 3431 
Q 3278 3131 3139 2831 
Q 3000 2531 2688 2169 
Q 2513 1966 2180 1606 
Q 1847 1247 1166 531 
z
" transform="scale(0.015625)"/>
       </defs>
       <use xlink:href="#DejaVuSansMono-30"/>
       <use xlink:href="#DejaVuSansMono-2e" transform="translate(60.205078 0)"/>
       <use xlink:href="#DejaVuSansMono-32" transform="translate(120.410156 0)"/>
      </g>
     </g>
    </g>
    <g id="xtick_3">
     <g id="line2d_5">
      <path d="M 437.869481 634.76 
L 437.869481 80.36 
" clip-path="url(#p246195d251)" style="fill: none; stroke: #b0b0b0; stroke-opacity: 0.25; stroke-width: 0.75; stroke-linecap: square"/>
     </g>
     <g id="line2d_6">
      <g>
       <use xlink:href="#me528a2085e" x="437.869481" y="634.76" style="stroke: #000000; stroke-width: 0.8"/>
      </g>
     </g>
     <g id="text_3">
      <!-- 0.4 -->
      <g transform="translate(419.808544 657.063125) scale(0.2 -0.2)">
       <defs>
        <path id="DejaVuSansMono-34" d="M 2297 4091 
L 825 1625 
L 2297 1625 
L 2297 4091 
z
M 2194 4666 
L 2925 4666 
L 2925 1625 
L 3547 1625 
L 3547 1113 
L 2925 1113 
L 2925 0 
L 2297 0 
L 2297 1113 
L 319 1113 
L 319 1709 
L 2194 4666 
z
" transform="scale(0.015625)"/>
       </defs>
       <use xlink:href="#DejaVuSansMono-30"/>
       <use xlink:href="#DejaVuSansMono-2e" transform="translate(60.205078 0)"/>
       <use xlink:href="#DejaVuSansMono-34" transform="translate(120.410156 0)"/>
      </g>
     </g>
    </g>
    <g id="xtick_4">
     <g id="line2d_7">
      <path d="M 600.580507 634.76 
L 600.580507 80.36 
" clip-path="url(#p246195d251)" style="fill: none; stroke: #b0b0b0; stroke-opacity: 0.25; stroke-width: 0.75; stroke-linecap: square"/>
     </g>
     <g id="line2d_8">
      <g>
       <use xlink:href="#me528a2085e" x="600.580507" y="634.76" style="stroke: #000000; stroke-width: 0.8"/>
      </g>
     </g>
     <g id="text_4">
      <!-- 0.6 -->
      <g transform="translate(582.519569 657.063125) scale(0.2 -0.2)">
       <defs>
        <path id="DejaVuSansMono-36" d="M 3097 4563 
L 3097 3981 
Q 2900 4097 2678 4158 
Q 2456 4219 2216 4219 
Q 1616 4219 1306 3767 
Q 997 3316 997 2438 
Q 1147 2750 1412 2917 
Q 1678 3084 2022 3084 
Q 2697 3084 3067 2670 
Q 3438 2256 3438 1497 
Q 3438 741 3056 325 
Q 2675 -91 1984 -91 
Q 1172 -91 794 492 
Q 416 1075 416 2328 
Q 416 3509 870 4129 
Q 1325 4750 2188 4750 
Q 2419 4750 2650 4701 
Q 2881 4653 3097 4563 
z
M 1972 2591 
Q 1569 2591 1337 2300 
Q 1106 2009 1106 1497 
Q 1106 984 1337 693 
Q 1569 403 1972 403 
Q 2391 403 2603 679 
Q 2816 956 2816 1497 
Q 2816 2041 2603 2316 
Q 2391 2591 1972 2591 
z
" transform="scale(0.015625)"/>
       </defs>
       <use xlink:href="#DejaVuSansMono-30"/>
       <use xlink:href="#DejaVuSansMono-2e" transform="translate(60.205078 0)"/>
       <use xlink:href="#DejaVuSansMono-36" transform="translate(120.410156 0)"/>
      </g>
     </g>
    </g>
    <g id="xtick_5">
     <g id="line2d_9">
      <path d="M 763.291532 634.76 
L 763.291532 80.36 
" clip-path="url(#p246195d251)" style="fill: none; stroke: #b0b0b0; stroke-opacity: 0.25; stroke-width: 0.75; stroke-linecap: square"/>
     </g>
     <g id="line2d_10">
      <g>
       <use xlink:href="#me528a2085e" x="763.291532" y="634.76" style="stroke: #000000; stroke-width: 0.8"/>
      </g>
     </g>
     <g id="text_5">
      <!-- 0.8 -->
      <g transform="translate(745.230594 657.063125) scale(0.2 -0.2)">
       <defs>
        <path id="DejaVuSansMono-38" d="M 1925 2216 
Q 1503 2216 1273 1980 
Q 1044 1744 1044 1313 
Q 1044 881 1276 642 
Q 1509 403 1925 403 
Q 2350 403 2579 639 
Q 2809 875 2809 1313 
Q 2809 1741 2576 1978 
Q 2344 2216 1925 2216 
z
M 1375 2478 
Q 972 2581 745 2862 
Q 519 3144 519 3541 
Q 519 4097 897 4423 
Q 1275 4750 1925 4750 
Q 2578 4750 2956 4423 
Q 3334 4097 3334 3541 
Q 3334 3144 3107 2862 
Q 2881 2581 2478 2478 
Q 2947 2375 3195 2062 
Q 3444 1750 3444 1253 
Q 3444 622 3041 265 
Q 2638 -91 1925 -91 
Q 1213 -91 811 264 
Q 409 619 409 1247 
Q 409 1747 657 2061 
Q 906 2375 1375 2478 
z
M 1147 3481 
Q 1147 3106 1347 2909 
Q 1547 2713 1925 2713 
Q 2306 2713 2506 2909 
Q 2706 3106 2706 3481 
Q 2706 3863 2507 4063 
Q 2309 4263 1925 4263 
Q 1547 4263 1347 4061 
Q 1147 3859 1147 3481 
z
" transform="scale(0.015625)"/>
       </defs>
       <use xlink:href="#DejaVuSansMono-30"/>
       <use xlink:href="#DejaVuSansMono-2e" transform="translate(60.205078 0)"/>
       <use xlink:href="#DejaVuSansMono-38" transform="translate(120.410156 0)"/>
      </g>
     </g>
    </g>
    <g id="xtick_6">
     <g id="line2d_11">
      <path d="M 926.002557 634.76 
L 926.002557 80.36 
" clip-path="url(#p246195d251)" style="fill: none; stroke: #b0b0b0; stroke-opacity: 0.25; stroke-width: 0.75; stroke-linecap: square"/>
     </g>
     <g id="line2d_12">
      <g>
       <use xlink:href="#me528a2085e" x="926.002557" y="634.76" style="stroke: #000000; stroke-width: 0.8"/>
      </g>
     </g>
     <g id="text_6">
      <!-- 1.0 -->
      <g transform="translate(907.941619 657.063125) scale(0.2 -0.2)">
       <defs>
        <path id="DejaVuSansMono-31" d="M 844 531 
L 1825 531 
L 1825 4097 
L 769 3859 
L 769 4434 
L 1819 4666 
L 2450 4666 
L 2450 531 
L 3419 531 
L 3419 0 
L 844 0 
L 844 531 
z
" transform="scale(0.015625)"/>
       </defs>
       <use xlink:href="#DejaVuSansMono-31"/>
       <use xlink:href="#DejaVuSansMono-2e" transform="translate(60.205078 0)"/>
       <use xlink:href="#DejaVuSansMono-30" transform="translate(120.410156 0)"/>
      </g>
     </g>
    </g>
    <g id="xtick_7">
     <g id="line2d_13">
      <path d="M 153.125187 634.76 
L 153.125187 80.36 
" clip-path="url(#p246195d251)" style="fill: none; stroke: #b0b0b0; stroke-opacity: 0.15; stroke-width: 0.25; stroke-linecap: square"/>
     </g>
     <g id="line2d_14">
      <defs>
       <path id="m0013c8c104" d="M 0 0 
L 0 2 
" style="stroke: #000000; stroke-width: 0.6"/>
      </defs>
      <g>
       <use xlink:href="#m0013c8c104" x="153.125187" y="634.76" style="stroke: #000000; stroke-width: 0.6"/>
      </g>
     </g>
    </g>
    <g id="xtick_8">
     <g id="line2d_15">
      <path d="M 193.802944 634.76 
L 193.802944 80.36 
" clip-path="url(#p246195d251)" style="fill: none; stroke: #b0b0b0; stroke-opacity: 0.15; stroke-width: 0.25; stroke-linecap: square"/>
     </g>
     <g id="line2d_16">
      <g>
       <use xlink:href="#m0013c8c104" x="193.802944" y="634.76" style="stroke: #000000; stroke-width: 0.6"/>
      </g>
     </g>
    </g>
    <g id="xtick_9">
     <g id="line2d_17">
      <path d="M 234.4807 634.76 
L 234.4807 80.36 
" clip-path="url(#p246195d251)" style="fill: none; stroke: #b0b0b0; stroke-opacity: 0.15; stroke-width: 0.25; stroke-linecap: square"/>
     </g>
     <g id="line2d_18">
      <g>
       <use xlink:href="#m0013c8c104" x="234.4807" y="634.76" style="stroke: #000000; stroke-width: 0.6"/>
      </g>
     </g>
    </g>
    <g id="xtick_10">
     <g id="line2d_19">
      <path d="M 315.836213 634.76 
L 315.836213 80.36 
" clip-path="url(#p246195d251)" style="fill: none; stroke: #b0b0b0; stroke-opacity: 0.15; stroke-width: 0.25; stroke-linecap: square"/>
     </g>
     <g id="line2d_20">
      <g>
       <use xlink:href="#m0013c8c104" x="315.836213" y="634.76" style="stroke: #000000; stroke-width: 0.6"/>
      </g>
     </g>
    </g>
    <g id="xtick_11">
     <g id="line2d_21">
      <path d="M 356.513969 634.76 
L 356.513969 80.36 
" clip-path="url(#p246195d251)" style="fill: none; stroke: #b0b0b0; stroke-opacity: 0.15; stroke-width: 0.25; stroke-linecap: square"/>
     </g>
     <g id="line2d_22">
      <g>
       <use xlink:href="#m0013c8c104" x="356.513969" y="634.76" style="stroke: #000000; stroke-width: 0.6"/>
      </g>
     </g>
    </g>
    <g id="xtick_12">
     <g id="line2d_23">
      <path d="M 397.191725 634.76 
L 397.191725 80.36 
" clip-path="url(#p246195d251)" style="fill: none; stroke: #b0b0b0; stroke-opacity: 0.15; stroke-width: 0.25; stroke-linecap: square"/>
     </g>
     <g id="line2d_24">
      <g>
       <use xlink:href="#m0013c8c104" x="397.191725" y="634.76" style="stroke: #000000; stroke-width: 0.6"/>
      </g>
     </g>
    </g>
    <g id="xtick_13">
     <g id="line2d_25">
      <path d="M 478.547238 634.76 
L 478.547238 80.36 
" clip-path="url(#p246195d251)" style="fill: none; stroke: #b0b0b0; stroke-opacity: 0.15; stroke-width: 0.25; stroke-linecap: square"/>
     </g>
     <g id="line2d_26">
      <g>
       <use xlink:href="#m0013c8c104" x="478.547238" y="634.76" style="stroke: #000000; stroke-width: 0.6"/>
      </g>
     </g>
    </g>
    <g id="xtick_14">
     <g id="line2d_27">
      <path d="M 519.224994 634.76 
L 519.224994 80.36 
" clip-path="url(#p246195d251)" style="fill: none; stroke: #b0b0b0; stroke-opacity: 0.15; stroke-width: 0.25; stroke-linecap: square"/>
     </g>
     <g id="line2d_28">
      <g>
       <use xlink:href="#m0013c8c104" x="519.224994" y="634.76" style="stroke: #000000; stroke-width: 0.6"/>
      </g>
     </g>
    </g>
    <g id="xtick_15">
     <g id="line2d_29">
      <path d="M 559.90275 634.76 
L 559.90275 80.36 
" clip-path="url(#p246195d251)" style="fill: none; stroke: #b0b0b0; stroke-opacity: 0.15; stroke-width: 0.25; stroke-linecap: square"/>
     </g>
     <g id="line2d_30">
      <g>
       <use xlink:href="#m0013c8c104" x="559.90275" y="634.76" style="stroke: #000000; stroke-width: 0.6"/>
      </g>
     </g>
    </g>
    <g id="xtick_16">
     <g id="line2d_31">
      <path d="M 641.258263 634.76 
L 641.258263 80.36 
" clip-path="url(#p246195d251)" style="fill: none; stroke: #b0b0b0; stroke-opacity: 0.15; stroke-width: 0.25; stroke-linecap: square"/>
     </g>
     <g id="line2d_32">
      <g>
       <use xlink:href="#m0013c8c104" x="641.258263" y="634.76" style="stroke: #000000; stroke-width: 0.6"/>
      </g>
     </g>
    </g>
    <g id="xtick_17">
     <g id="line2d_33">
      <path d="M 681.936019 634.76 
L 681.936019 80.36 
" clip-path="url(#p246195d251)" style="fill: none; stroke: #b0b0b0; stroke-opacity: 0.15; stroke-width: 0.25; stroke-linecap: square"/>
     </g>
     <g id="line2d_34">
      <g>
       <use xlink:href="#m0013c8c104" x="681.936019" y="634.76" style="stroke: #000000; stroke-width: 0.6"/>
      </g>
     </g>
    </g>
    <g id="xtick_18">
     <g id="line2d_35">
      <path d="M 722.613775 634.76 
L 722.613775 80.36 
" clip-path="url(#p246195d251)" style="fill: none; stroke: #b0b0b0; stroke-opacity: 0.15; stroke-width: 0.25; stroke-linecap: square"/>
     </g>
     <g id="line2d_36">
      <g>
       <use xlink:href="#m0013c8c104" x="722.613775" y="634.76" style="stroke: #000000; stroke-width: 0.6"/>
      </g>
     </g>
    </g>
    <g id="xtick_19">
     <g id="line2d_37">
      <path d="M 803.969288 634.76 
L 803.969288 80.36 
" clip-path="url(#p246195d251)" style="fill: none; stroke: #b0b0b0; stroke-opacity: 0.15; stroke-width: 0.25; stroke-linecap: square"/>
     </g>
     <g id="line2d_38">
      <g>
       <use xlink:href="#m0013c8c104" x="803.969288" y="634.76" style="stroke: #000000; stroke-width: 0.6"/>
      </g>
     </g>
    </g>
    <g id="xtick_20">
     <g id="line2d_39">
      <path d="M 844.647044 634.76 
L 844.647044 80.36 
" clip-path="url(#p246195d251)" style="fill: none; stroke: #b0b0b0; stroke-opacity: 0.15; stroke-width: 0.25; stroke-linecap: square"/>
     </g>
     <g id="line2d_40">
      <g>
       <use xlink:href="#m0013c8c104" x="844.647044" y="634.76" style="stroke: #000000; stroke-width: 0.6"/>
      </g>
     </g>
    </g>
    <g id="xtick_21">
     <g id="line2d_41">
      <path d="M 885.324801 634.76 
L 885.324801 80.36 
" clip-path="url(#p246195d251)" style="fill: none; stroke: #b0b0b0; stroke-opacity: 0.15; stroke-width: 0.25; stroke-linecap: square"/>
     </g>
     <g id="line2d_42">
      <g>
       <use xlink:href="#m0013c8c104" x="885.324801" y="634.76" style="stroke: #000000; stroke-width: 0.6"/>
      </g>
     </g>
    </g>
    <g id="text_7">
     <!-- Fraction of residues included (sorted by mean importance) -->
     <g transform="translate(177.026563 680.525625) scale(0.2 -0.2)">
      <defs>
       <path id="DejaVuSansMono-46" d="M 728 4666 
L 3475 4666 
L 3475 4134 
L 1363 4134 
L 1363 2759 
L 3278 2759 
L 3278 2228 
L 1363 2228 
L 1363 0 
L 728 0 
L 728 4666 
z
" transform="scale(0.015625)"/>
       <path id="DejaVuSansMono-72" d="M 3609 2778 
Q 3425 2922 3234 2987 
Q 3044 3053 2816 3053 
Q 2278 3053 1993 2715 
Q 1709 2378 1709 1741 
L 1709 0 
L 1131 0 
L 1131 3500 
L 1709 3500 
L 1709 2816 
Q 1853 3188 2151 3386 
Q 2450 3584 2859 3584 
Q 3072 3584 3256 3531 
Q 3441 3478 3609 3366 
L 3609 2778 
z
" transform="scale(0.015625)"/>
       <path id="DejaVuSansMono-61" d="M 2194 1759 
L 2003 1759 
Q 1500 1759 1245 1582 
Q 991 1406 991 1056 
Q 991 741 1181 566 
Q 1372 391 1709 391 
Q 2184 391 2456 720 
Q 2728 1050 2731 1631 
L 2731 1759 
L 2194 1759 
z
M 3309 1997 
L 3309 0 
L 2731 0 
L 2731 519 
Q 2547 206 2267 57 
Q 1988 -91 1588 -91 
Q 1053 -91 734 211 
Q 416 513 416 1019 
Q 416 1603 808 1906 
Q 1200 2209 1959 2209 
L 2731 2209 
L 2731 2300 
Q 2728 2719 2518 2908 
Q 2309 3097 1850 3097 
Q 1556 3097 1256 3012 
Q 956 2928 672 2766 
L 672 3341 
Q 991 3463 1283 3523 
Q 1575 3584 1850 3584 
Q 2284 3584 2592 3456 
Q 2900 3328 3091 3072 
Q 3209 2916 3259 2686 
Q 3309 2456 3309 1997 
z
" transform="scale(0.015625)"/>
       <path id="DejaVuSansMono-63" d="M 3316 178 
Q 3084 44 2839 -23 
Q 2594 -91 2338 -91 
Q 1525 -91 1067 396 
Q 609 884 609 1747 
Q 609 2609 1067 3096 
Q 1525 3584 2338 3584 
Q 2591 3584 2831 3518 
Q 3072 3453 3316 3316 
L 3316 2713 
Q 3088 2916 2858 3006 
Q 2628 3097 2338 3097 
Q 1797 3097 1506 2747 
Q 1216 2397 1216 1747 
Q 1216 1100 1508 748 
Q 1800 397 2338 397 
Q 2638 397 2875 489 
Q 3113 581 3316 775 
L 3316 178 
z
" transform="scale(0.015625)"/>
       <path id="DejaVuSansMono-74" d="M 1919 4494 
L 1919 3500 
L 3225 3500 
L 3225 3053 
L 1919 3053 
L 1919 1153 
Q 1919 766 2066 612 
Q 2213 459 2578 459 
L 3225 459 
L 3225 0 
L 2522 0 
Q 1875 0 1609 259 
Q 1344 519 1344 1153 
L 1344 3053 
L 409 3053 
L 409 3500 
L 1344 3500 
L 1344 4494 
L 1919 4494 
z
" transform="scale(0.015625)"/>
       <path id="DejaVuSansMono-69" d="M 800 3500 
L 2272 3500 
L 2272 447 
L 3413 447 
L 3413 0 
L 556 0 
L 556 447 
L 1697 447 
L 1697 3053 
L 800 3053 
L 800 3500 
z
M 1697 4863 
L 2272 4863 
L 2272 4134 
L 1697 4134 
L 1697 4863 
z
" transform="scale(0.015625)"/>
       <path id="DejaVuSansMono-6f" d="M 1925 3097 
Q 1488 3097 1263 2756 
Q 1038 2416 1038 1747 
Q 1038 1081 1263 739 
Q 1488 397 1925 397 
Q 2366 397 2591 739 
Q 2816 1081 2816 1747 
Q 2816 2416 2591 2756 
Q 2366 3097 1925 3097 
z
M 1925 3584 
Q 2653 3584 3039 3112 
Q 3425 2641 3425 1747 
Q 3425 850 3040 379 
Q 2656 -91 1925 -91 
Q 1197 -91 812 379 
Q 428 850 428 1747 
Q 428 2641 812 3112 
Q 1197 3584 1925 3584 
z
" transform="scale(0.015625)"/>
       <path id="DejaVuSansMono-6e" d="M 3284 2169 
L 3284 0 
L 2706 0 
L 2706 2169 
Q 2706 2641 2540 2862 
Q 2375 3084 2022 3084 
Q 1619 3084 1401 2798 
Q 1184 2513 1184 1978 
L 1184 0 
L 609 0 
L 609 3500 
L 1184 3500 
L 1184 2975 
Q 1338 3275 1600 3429 
Q 1863 3584 2222 3584 
Q 2756 3584 3020 3232 
Q 3284 2881 3284 2169 
z
" transform="scale(0.015625)"/>
       <path id="DejaVuSansMono-20" transform="scale(0.015625)"/>
       <path id="DejaVuSansMono-66" d="M 3322 4863 
L 3322 4384 
L 2669 4384 
Q 2359 4384 2239 4257 
Q 2119 4131 2119 3809 
L 2119 3500 
L 3322 3500 
L 3322 3053 
L 2119 3053 
L 2119 0 
L 1544 0 
L 1544 3053 
L 609 3053 
L 609 3500 
L 1544 3500 
L 1544 3744 
Q 1544 4319 1808 4591 
Q 2072 4863 2631 4863 
L 3322 4863 
z
" transform="scale(0.015625)"/>
       <path id="DejaVuSansMono-65" d="M 3475 1894 
L 3475 1613 
L 984 1613 
L 984 1594 
Q 984 1022 1282 709 
Q 1581 397 2125 397 
Q 2400 397 2700 484 
Q 3000 572 3341 750 
L 3341 178 
Q 3013 44 2708 -23 
Q 2403 -91 2119 -91 
Q 1303 -91 843 398 
Q 384 888 384 1747 
Q 384 2584 834 3084 
Q 1284 3584 2034 3584 
Q 2703 3584 3089 3131 
Q 3475 2678 3475 1894 
z
M 2900 2063 
Q 2888 2569 2661 2833 
Q 2434 3097 2009 3097 
Q 1594 3097 1325 2822 
Q 1056 2547 1006 2059 
L 2900 2063 
z
" transform="scale(0.015625)"/>
       <path id="DejaVuSansMono-73" d="M 3041 3378 
L 3041 2816 
Q 2794 2959 2544 3031 
Q 2294 3103 2034 3103 
Q 1644 3103 1451 2976 
Q 1259 2850 1259 2591 
Q 1259 2356 1403 2240 
Q 1547 2125 2119 2016 
L 2350 1972 
Q 2778 1891 2998 1647 
Q 3219 1403 3219 1013 
Q 3219 494 2850 201 
Q 2481 -91 1825 -91 
Q 1566 -91 1281 -36 
Q 997 19 666 128 
L 666 722 
Q 988 556 1281 473 
Q 1575 391 1838 391 
Q 2219 391 2428 545 
Q 2638 700 2638 978 
Q 2638 1378 1872 1531 
L 1847 1538 
L 1631 1581 
Q 1134 1678 906 1908 
Q 678 2138 678 2534 
Q 678 3038 1018 3311 
Q 1359 3584 1991 3584 
Q 2272 3584 2531 3532 
Q 2791 3481 3041 3378 
z
" transform="scale(0.015625)"/>
       <path id="DejaVuSansMono-64" d="M 2681 3053 
L 2681 4863 
L 3256 4863 
L 3256 0 
L 2681 0 
L 2681 441 
Q 2538 181 2298 45 
Q 2059 -91 1747 -91 
Q 1113 -91 748 401 
Q 384 894 384 1759 
Q 384 2613 750 3098 
Q 1116 3584 1747 3584 
Q 2063 3584 2303 3448 
Q 2544 3313 2681 3053 
z
M 991 1747 
Q 991 1078 1203 737 
Q 1416 397 1831 397 
Q 2247 397 2464 740 
Q 2681 1084 2681 1747 
Q 2681 2413 2464 2755 
Q 2247 3097 1831 3097 
Q 1416 3097 1203 2756 
Q 991 2416 991 1747 
z
" transform="scale(0.015625)"/>
       <path id="DejaVuSansMono-75" d="M 609 1325 
L 609 3494 
L 1184 3494 
L 1184 1325 
Q 1184 853 1351 631 
Q 1519 409 1869 409 
Q 2275 409 2490 695 
Q 2706 981 2706 1516 
L 2706 3494 
L 3284 3494 
L 3284 0 
L 2706 0 
L 2706 525 
Q 2553 222 2289 65 
Q 2025 -91 1672 -91 
Q 1134 -91 871 261 
Q 609 613 609 1325 
z
" transform="scale(0.015625)"/>
       <path id="DejaVuSansMono-6c" d="M 1997 1269 
Q 1997 881 2139 684 
Q 2281 488 2559 488 
L 3231 488 
L 3231 0 
L 2503 0 
Q 1988 0 1705 331 
Q 1422 663 1422 1269 
L 1422 4447 
L 500 4447 
L 500 4897 
L 1997 4897 
L 1997 1269 
z
" transform="scale(0.015625)"/>
       <path id="DejaVuSansMono-28" d="M 2766 4856 
Q 2350 4144 2145 3436 
Q 1941 2728 1941 2009 
Q 1941 1294 2145 584 
Q 2350 -125 2766 -844 
L 2266 -844 
Q 1794 -100 1562 604 
Q 1331 1309 1331 2009 
Q 1331 2706 1562 3412 
Q 1794 4119 2266 4856 
L 2766 4856 
z
" transform="scale(0.015625)"/>
       <path id="DejaVuSansMono-62" d="M 2869 1747 
Q 2869 2416 2656 2756 
Q 2444 3097 2028 3097 
Q 1609 3097 1393 2755 
Q 1178 2413 1178 1747 
Q 1178 1084 1393 740 
Q 1609 397 2028 397 
Q 2444 397 2656 737 
Q 2869 1078 2869 1747 
z
M 1178 3053 
Q 1316 3309 1558 3446 
Q 1800 3584 2119 3584 
Q 2750 3584 3112 3098 
Q 3475 2613 3475 1759 
Q 3475 894 3111 401 
Q 2747 -91 2113 -91 
Q 1800 -91 1561 45 
Q 1322 181 1178 441 
L 1178 0 
L 603 0 
L 603 4863 
L 1178 4863 
L 1178 3053 
z
" transform="scale(0.015625)"/>
       <path id="DejaVuSansMono-79" d="M 2681 1125 
Q 2538 759 2316 163 
Q 2006 -663 1900 -844 
Q 1756 -1088 1540 -1209 
Q 1325 -1331 1038 -1331 
L 575 -1331 
L 575 -850 
L 916 -850 
Q 1169 -850 1312 -703 
Q 1456 -556 1678 56 
L 325 3500 
L 934 3500 
L 1972 763 
L 2994 3500 
L 3603 3500 
L 2681 1125 
z
" transform="scale(0.015625)"/>
       <path id="DejaVuSansMono-6d" d="M 2113 3144 
Q 2219 3369 2383 3476 
Q 2547 3584 2778 3584 
Q 3200 3584 3373 3257 
Q 3547 2931 3547 2028 
L 3547 0 
L 3022 0 
L 3022 2003 
Q 3022 2744 2939 2923 
Q 2856 3103 2638 3103 
Q 2388 3103 2295 2911 
Q 2203 2719 2203 2003 
L 2203 0 
L 1678 0 
L 1678 2003 
Q 1678 2753 1589 2928 
Q 1500 3103 1269 3103 
Q 1041 3103 952 2911 
Q 863 2719 863 2003 
L 863 0 
L 341 0 
L 341 3500 
L 863 3500 
L 863 3200 
Q 966 3388 1120 3486 
Q 1275 3584 1472 3584 
Q 1709 3584 1867 3475 
Q 2025 3366 2113 3144 
z
" transform="scale(0.015625)"/>
       <path id="DejaVuSansMono-70" d="M 1172 441 
L 1172 -1331 
L 594 -1331 
L 594 3500 
L 1172 3500 
L 1172 3053 
Q 1316 3313 1555 3448 
Q 1794 3584 2106 3584 
Q 2741 3584 3102 3093 
Q 3463 2603 3463 1734 
Q 3463 881 3100 395 
Q 2738 -91 2106 -91 
Q 1788 -91 1548 45 
Q 1309 181 1172 441 
z
M 2859 1747 
Q 2859 2416 2648 2756 
Q 2438 3097 2022 3097 
Q 1603 3097 1387 2755 
Q 1172 2413 1172 1747 
Q 1172 1084 1387 740 
Q 1603 397 2022 397 
Q 2438 397 2648 737 
Q 2859 1078 2859 1747 
z
" transform="scale(0.015625)"/>
       <path id="DejaVuSansMono-29" d="M 1088 4856 
L 1588 4856 
Q 2059 4119 2290 3412 
Q 2522 2706 2522 2009 
Q 2522 1306 2290 600 
Q 2059 -106 1588 -844 
L 1088 -844 
Q 1503 -119 1708 590 
Q 1913 1300 1913 2009 
Q 1913 2722 1708 3431 
Q 1503 4141 1088 4856 
z
" transform="scale(0.015625)"/>
      </defs>
      <use xlink:href="#DejaVuSansMono-46"/>
      <use xlink:href="#DejaVuSansMono-72" transform="translate(60.205078 0)"/>
      <use xlink:href="#DejaVuSansMono-61" transform="translate(120.410156 0)"/>
      <use xlink:href="#DejaVuSansMono-63" transform="translate(180.615234 0)"/>
      <use xlink:href="#DejaVuSansMono-74" transform="translate(240.820312 0)"/>
      <use xlink:href="#DejaVuSansMono-69" transform="translate(301.025391 0)"/>
      <use xlink:href="#DejaVuSansMono-6f" transform="translate(361.230469 0)"/>
      <use xlink:href="#DejaVuSansMono-6e" transform="translate(421.435547 0)"/>
      <use xlink:href="#DejaVuSansMono-20" transform="translate(481.640625 0)"/>
      <use xlink:href="#DejaVuSansMono-6f" transform="translate(541.845703 0)"/>
      <use xlink:href="#DejaVuSansMono-66" transform="translate(602.050781 0)"/>
      <use xlink:href="#DejaVuSansMono-20" transform="translate(662.255859 0)"/>
      <use xlink:href="#DejaVuSansMono-72" transform="translate(722.460938 0)"/>
      <use xlink:href="#DejaVuSansMono-65" transform="translate(782.666016 0)"/>
      <use xlink:href="#DejaVuSansMono-73" transform="translate(842.871094 0)"/>
      <use xlink:href="#DejaVuSansMono-69" transform="translate(903.076172 0)"/>
      <use xlink:href="#DejaVuSansMono-64" transform="translate(963.28125 0)"/>
      <use xlink:href="#DejaVuSansMono-75" transform="translate(1023.486328 0)"/>
      <use xlink:href="#DejaVuSansMono-65" transform="translate(1083.691406 0)"/>
      <use xlink:href="#DejaVuSansMono-73" transform="translate(1143.896484 0)"/>
      <use xlink:href="#DejaVuSansMono-20" transform="translate(1204.101562 0)"/>
      <use xlink:href="#DejaVuSansMono-69" transform="translate(1264.306641 0)"/>
      <use xlink:href="#DejaVuSansMono-6e" transform="translate(1324.511719 0)"/>
      <use xlink:href="#DejaVuSansMono-63" transform="translate(1384.716797 0)"/>
      <use xlink:href="#DejaVuSansMono-6c" transform="translate(1444.921875 0)"/>
      <use xlink:href="#DejaVuSansMono-75" transform="translate(1505.126953 0)"/>
      <use xlink:href="#DejaVuSansMono-64" transform="translate(1565.332031 0)"/>
      <use xlink:href="#DejaVuSansMono-65" transform="translate(1625.537109 0)"/>
      <use xlink:href="#DejaVuSansMono-64" transform="translate(1685.742188 0)"/>
      <use xlink:href="#DejaVuSansMono-20" transform="translate(1745.947266 0)"/>
      <use xlink:href="#DejaVuSansMono-28" transform="translate(1806.152344 0)"/>
      <use xlink:href="#DejaVuSansMono-73" transform="translate(1866.357422 0)"/>
      <use xlink:href="#DejaVuSansMono-6f" transform="translate(1926.5625 0)"/>
      <use xlink:href="#DejaVuSansMono-72" transform="translate(1986.767578 0)"/>
      <use xlink:href="#DejaVuSansMono-74" transform="translate(2046.972656 0)"/>
      <use xlink:href="#DejaVuSansMono-65" transform="translate(2107.177734 0)"/>
      <use xlink:href="#DejaVuSansMono-64" transform="translate(2167.382812 0)"/>
      <use xlink:href="#DejaVuSansMono-20" transform="translate(2227.587891 0)"/>
      <use xlink:href="#DejaVuSansMono-62" transform="translate(2287.792969 0)"/>
      <use xlink:href="#DejaVuSansMono-79" transform="translate(2347.998047 0)"/>
      <use xlink:href="#DejaVuSansMono-20" transform="translate(2408.203125 0)"/>
      <use xlink:href="#DejaVuSansMono-6d" transform="translate(2468.408203 0)"/>
      <use xlink:href="#DejaVuSansMono-65" transform="translate(2528.613281 0)"/>
      <use xlink:href="#DejaVuSansMono-61" transform="translate(2588.818359 0)"/>
      <use xlink:href="#DejaVuSansMono-6e" transform="translate(2649.023438 0)"/>
      <use xlink:href="#DejaVuSansMono-20" transform="translate(2709.228516 0)"/>
      <use xlink:href="#DejaVuSansMono-69" transform="translate(2769.433594 0)"/>
      <use xlink:href="#DejaVuSansMono-6d" transform="translate(2829.638672 0)"/>
      <use xlink:href="#DejaVuSansMono-70" transform="translate(2889.84375 0)"/>
      <use xlink:href="#DejaVuSansMono-6f" transform="translate(2950.048828 0)"/>
      <use xlink:href="#DejaVuSansMono-72" transform="translate(3010.253906 0)"/>
      <use xlink:href="#DejaVuSansMono-74" transform="translate(3070.458984 0)"/>
      <use xlink:href="#DejaVuSansMono-61" transform="translate(3130.664062 0)"/>
      <use xlink:href="#DejaVuSansMono-6e" transform="translate(3190.869141 0)"/>
      <use xlink:href="#DejaVuSansMono-63" transform="translate(3251.074219 0)"/>
      <use xlink:href="#DejaVuSansMono-65" transform="translate(3311.279297 0)"/>
      <use xlink:href="#DejaVuSansMono-29" transform="translate(3371.484375 0)"/>
     </g>
    </g>
   </g>
   <g id="matplotlib.axis_2">
    <g id="ytick_1">
     <g id="line2d_43">
      <path d="M 73.784375 609.56 
L 966.584375 609.56 
" clip-path="url(#p246195d251)" style="fill: none; stroke: #b0b0b0; stroke-opacity: 0.25; stroke-width: 0.75; stroke-linecap: square"/>
     </g>
     <g id="line2d_44">
      <defs>
       <path id="ma1f34e08f3" d="M 0 0 
L -3.5 0 
" style="stroke: #000000; stroke-width: 0.8"/>
      </defs>
      <g>
       <use xlink:href="#ma1f34e08f3" x="73.784375" y="609.56" style="stroke: #000000; stroke-width: 0.8"/>
      </g>
     </g>
     <g id="text_8">
      <!-- 0.0 -->
      <g transform="translate(30.6625 617.211563) scale(0.2 -0.2)">
       <use xlink:href="#DejaVuSansMono-30"/>
       <use xlink:href="#DejaVuSansMono-2e" transform="translate(60.205078 0)"/>
       <use xlink:href="#DejaVuSansMono-30" transform="translate(120.410156 0)"/>
      </g>
     </g>
    </g>
    <g id="ytick_2">
     <g id="line2d_45">
      <path d="M 73.784375 508.760072 
L 966.584375 508.760072 
" clip-path="url(#p246195d251)" style="fill: none; stroke: #b0b0b0; stroke-opacity: 0.25; stroke-width: 0.75; stroke-linecap: square"/>
     </g>
     <g id="line2d_46">
      <g>
       <use xlink:href="#ma1f34e08f3" x="73.784375" y="508.760072" style="stroke: #000000; stroke-width: 0.8"/>
      </g>
     </g>
     <g id="text_9">
      <!-- 0.2 -->
      <g transform="translate(30.6625 516.411635) scale(0.2 -0.2)">
       <use xlink:href="#DejaVuSansMono-30"/>
       <use xlink:href="#DejaVuSansMono-2e" transform="translate(60.205078 0)"/>
       <use xlink:href="#DejaVuSansMono-32" transform="translate(120.410156 0)"/>
      </g>
     </g>
    </g>
    <g id="ytick_3">
     <g id="line2d_47">
      <path d="M 73.784375 407.960144 
L 966.584375 407.960144 
" clip-path="url(#p246195d251)" style="fill: none; stroke: #b0b0b0; stroke-opacity: 0.25; stroke-width: 0.75; stroke-linecap: square"/>
     </g>
     <g id="line2d_48">
      <g>
       <use xlink:href="#ma1f34e08f3" x="73.784375" y="407.960144" style="stroke: #000000; stroke-width: 0.8"/>
      </g>
     </g>
     <g id="text_10">
      <!-- 0.4 -->
      <g transform="translate(30.6625 415.611707) scale(0.2 -0.2)">
       <use xlink:href="#DejaVuSansMono-30"/>
       <use xlink:href="#DejaVuSansMono-2e" transform="translate(60.205078 0)"/>
       <use xlink:href="#DejaVuSansMono-34" transform="translate(120.410156 0)"/>
      </g>
     </g>
    </g>
    <g id="ytick_4">
     <g id="line2d_49">
      <path d="M 73.784375 307.160216 
L 966.584375 307.160216 
" clip-path="url(#p246195d251)" style="fill: none; stroke: #b0b0b0; stroke-opacity: 0.25; stroke-width: 0.75; stroke-linecap: square"/>
     </g>
     <g id="line2d_50">
      <g>
       <use xlink:href="#ma1f34e08f3" x="73.784375" y="307.160216" style="stroke: #000000; stroke-width: 0.8"/>
      </g>
     </g>
     <g id="text_11">
      <!-- 0.6 -->
      <g transform="translate(30.6625 314.811779) scale(0.2 -0.2)">
       <use xlink:href="#DejaVuSansMono-30"/>
       <use xlink:href="#DejaVuSansMono-2e" transform="translate(60.205078 0)"/>
       <use xlink:href="#DejaVuSansMono-36" transform="translate(120.410156 0)"/>
      </g>
     </g>
    </g>
    <g id="ytick_5">
     <g id="line2d_51">
      <path d="M 73.784375 206.360288 
L 966.584375 206.360288 
" clip-path="url(#p246195d251)" style="fill: none; stroke: #b0b0b0; stroke-opacity: 0.25; stroke-width: 0.75; stroke-linecap: square"/>
     </g>
     <g id="line2d_52">
      <g>
       <use xlink:href="#ma1f34e08f3" x="73.784375" y="206.360288" style="stroke: #000000; stroke-width: 0.8"/>
      </g>
     </g>
     <g id="text_12">
      <!-- 0.8 -->
      <g transform="translate(30.6625 214.011851) scale(0.2 -0.2)">
       <use xlink:href="#DejaVuSansMono-30"/>
       <use xlink:href="#DejaVuSansMono-2e" transform="translate(60.205078 0)"/>
       <use xlink:href="#DejaVuSansMono-38" transform="translate(120.410156 0)"/>
      </g>
     </g>
    </g>
    <g id="ytick_6">
     <g id="line2d_53">
      <path d="M 73.784375 105.56036 
L 966.584375 105.56036 
" clip-path="url(#p246195d251)" style="fill: none; stroke: #b0b0b0; stroke-opacity: 0.25; stroke-width: 0.75; stroke-linecap: square"/>
     </g>
     <g id="line2d_54">
      <g>
       <use xlink:href="#ma1f34e08f3" x="73.784375" y="105.56036" style="stroke: #000000; stroke-width: 0.8"/>
      </g>
     </g>
     <g id="text_13">
      <!-- 1.0 -->
      <g transform="translate(30.6625 113.211923) scale(0.2 -0.2)">
       <use xlink:href="#DejaVuSansMono-31"/>
       <use xlink:href="#DejaVuSansMono-2e" transform="translate(60.205078 0)"/>
       <use xlink:href="#DejaVuSansMono-30" transform="translate(120.410156 0)"/>
      </g>
     </g>
    </g>
    <g id="ytick_7">
     <g id="line2d_55">
      <path d="M 73.784375 634.759982 
L 966.584375 634.759982 
" clip-path="url(#p246195d251)" style="fill: none; stroke: #b0b0b0; stroke-opacity: 0.15; stroke-width: 0.25; stroke-linecap: square"/>
     </g>
     <g id="line2d_56">
      <defs>
       <path id="m30bb93dfa9" d="M 0 0 
L -2 0 
" style="stroke: #000000; stroke-width: 0.6"/>
      </defs>
      <g>
       <use xlink:href="#m30bb93dfa9" x="73.784375" y="634.759982" style="stroke: #000000; stroke-width: 0.6"/>
      </g>
     </g>
    </g>
    <g id="ytick_8">
     <g id="line2d_57">
      <path d="M 73.784375 584.360018 
L 966.584375 584.360018 
" clip-path="url(#p246195d251)" style="fill: none; stroke: #b0b0b0; stroke-opacity: 0.15; stroke-width: 0.25; stroke-linecap: square"/>
     </g>
     <g id="line2d_58">
      <g>
       <use xlink:href="#m30bb93dfa9" x="73.784375" y="584.360018" style="stroke: #000000; stroke-width: 0.6"/>
      </g>
     </g>
    </g>
    <g id="ytick_9">
     <g id="line2d_59">
      <path d="M 73.784375 559.160036 
L 966.584375 559.160036 
" clip-path="url(#p246195d251)" style="fill: none; stroke: #b0b0b0; stroke-opacity: 0.15; stroke-width: 0.25; stroke-linecap: square"/>
     </g>
     <g id="line2d_60">
      <g>
       <use xlink:href="#m30bb93dfa9" x="73.784375" y="559.160036" style="stroke: #000000; stroke-width: 0.6"/>
      </g>
     </g>
    </g>
    <g id="ytick_10">
     <g id="line2d_61">
      <path d="M 73.784375 533.960054 
L 966.584375 533.960054 
" clip-path="url(#p246195d251)" style="fill: none; stroke: #b0b0b0; stroke-opacity: 0.15; stroke-width: 0.25; stroke-linecap: square"/>
     </g>
     <g id="line2d_62">
      <g>
       <use xlink:href="#m30bb93dfa9" x="73.784375" y="533.960054" style="stroke: #000000; stroke-width: 0.6"/>
      </g>
     </g>
    </g>
    <g id="ytick_11">
     <g id="line2d_63">
      <path d="M 73.784375 483.56009 
L 966.584375 483.56009 
" clip-path="url(#p246195d251)" style="fill: none; stroke: #b0b0b0; stroke-opacity: 0.15; stroke-width: 0.25; stroke-linecap: square"/>
     </g>
     <g id="line2d_64">
      <g>
       <use xlink:href="#m30bb93dfa9" x="73.784375" y="483.56009" style="stroke: #000000; stroke-width: 0.6"/>
      </g>
     </g>
    </g>
    <g id="ytick_12">
     <g id="line2d_65">
      <path d="M 73.784375 458.360108 
L 966.584375 458.360108 
" clip-path="url(#p246195d251)" style="fill: none; stroke: #b0b0b0; stroke-opacity: 0.15; stroke-width: 0.25; stroke-linecap: square"/>
     </g>
     <g id="line2d_66">
      <g>
       <use xlink:href="#m30bb93dfa9" x="73.784375" y="458.360108" style="stroke: #000000; stroke-width: 0.6"/>
      </g>
     </g>
    </g>
    <g id="ytick_13">
     <g id="line2d_67">
      <path d="M 73.784375 433.160126 
L 966.584375 433.160126 
" clip-path="url(#p246195d251)" style="fill: none; stroke: #b0b0b0; stroke-opacity: 0.15; stroke-width: 0.25; stroke-linecap: square"/>
     </g>
     <g id="line2d_68">
      <g>
       <use xlink:href="#m30bb93dfa9" x="73.784375" y="433.160126" style="stroke: #000000; stroke-width: 0.6"/>
      </g>
     </g>
    </g>
    <g id="ytick_14">
     <g id="line2d_69">
      <path d="M 73.784375 382.760162 
L 966.584375 382.760162 
" clip-path="url(#p246195d251)" style="fill: none; stroke: #b0b0b0; stroke-opacity: 0.15; stroke-width: 0.25; stroke-linecap: square"/>
     </g>
     <g id="line2d_70">
      <g>
       <use xlink:href="#m30bb93dfa9" x="73.784375" y="382.760162" style="stroke: #000000; stroke-width: 0.6"/>
      </g>
     </g>
    </g>
    <g id="ytick_15">
     <g id="line2d_71">
      <path d="M 73.784375 357.56018 
L 966.584375 357.56018 
" clip-path="url(#p246195d251)" style="fill: none; stroke: #b0b0b0; stroke-opacity: 0.15; stroke-width: 0.25; stroke-linecap: square"/>
     </g>
     <g id="line2d_72">
      <g>
       <use xlink:href="#m30bb93dfa9" x="73.784375" y="357.56018" style="stroke: #000000; stroke-width: 0.6"/>
      </g>
     </g>
    </g>
    <g id="ytick_16">
     <g id="line2d_73">
      <path d="M 73.784375 332.360198 
L 966.584375 332.360198 
" clip-path="url(#p246195d251)" style="fill: none; stroke: #b0b0b0; stroke-opacity: 0.15; stroke-width: 0.25; stroke-linecap: square"/>
     </g>
     <g id="line2d_74">
      <g>
       <use xlink:href="#m30bb93dfa9" x="73.784375" y="332.360198" style="stroke: #000000; stroke-width: 0.6"/>
      </g>
     </g>
    </g>
    <g id="ytick_17">
     <g id="line2d_75">
      <path d="M 73.784375 281.960234 
L 966.584375 281.960234 
" clip-path="url(#p246195d251)" style="fill: none; stroke: #b0b0b0; stroke-opacity: 0.15; stroke-width: 0.25; stroke-linecap: square"/>
     </g>
     <g id="line2d_76">
      <g>
       <use xlink:href="#m30bb93dfa9" x="73.784375" y="281.960234" style="stroke: #000000; stroke-width: 0.6"/>
      </g>
     </g>
    </g>
    <g id="ytick_18">
     <g id="line2d_77">
      <path d="M 73.784375 256.760252 
L 966.584375 256.760252 
" clip-path="url(#p246195d251)" style="fill: none; stroke: #b0b0b0; stroke-opacity: 0.15; stroke-width: 0.25; stroke-linecap: square"/>
     </g>
     <g id="line2d_78">
      <g>
       <use xlink:href="#m30bb93dfa9" x="73.784375" y="256.760252" style="stroke: #000000; stroke-width: 0.6"/>
      </g>
     </g>
    </g>
    <g id="ytick_19">
     <g id="line2d_79">
      <path d="M 73.784375 231.56027 
L 966.584375 231.56027 
" clip-path="url(#p246195d251)" style="fill: none; stroke: #b0b0b0; stroke-opacity: 0.15; stroke-width: 0.25; stroke-linecap: square"/>
     </g>
     <g id="line2d_80">
      <g>
       <use xlink:href="#m30bb93dfa9" x="73.784375" y="231.56027" style="stroke: #000000; stroke-width: 0.6"/>
      </g>
     </g>
    </g>
    <g id="ytick_20">
     <g id="line2d_81">
      <path d="M 73.784375 181.160306 
L 966.584375 181.160306 
" clip-path="url(#p246195d251)" style="fill: none; stroke: #b0b0b0; stroke-opacity: 0.15; stroke-width: 0.25; stroke-linecap: square"/>
     </g>
     <g id="line2d_82">
      <g>
       <use xlink:href="#m30bb93dfa9" x="73.784375" y="181.160306" style="stroke: #000000; stroke-width: 0.6"/>
      </g>
     </g>
    </g>
    <g id="ytick_21">
     <g id="line2d_83">
      <path d="M 73.784375 155.960324 
L 966.584375 155.960324 
" clip-path="url(#p246195d251)" style="fill: none; stroke: #b0b0b0; stroke-opacity: 0.15; stroke-width: 0.25; stroke-linecap: square"/>
     </g>
     <g id="line2d_84">
      <g>
       <use xlink:href="#m30bb93dfa9" x="73.784375" y="155.960324" style="stroke: #000000; stroke-width: 0.6"/>
      </g>
     </g>
    </g>
    <g id="ytick_22">
     <g id="line2d_85">
      <path d="M 73.784375 130.760342 
L 966.584375 130.760342 
" clip-path="url(#p246195d251)" style="fill: none; stroke: #b0b0b0; stroke-opacity: 0.15; stroke-width: 0.25; stroke-linecap: square"/>
     </g>
     <g id="line2d_86">
      <g>
       <use xlink:href="#m30bb93dfa9" x="73.784375" y="130.760342" style="stroke: #000000; stroke-width: 0.6"/>
      </g>
     </g>
    </g>
    <g id="ytick_23">
     <g id="line2d_87">
      <path d="M 73.784375 80.360379 
L 966.584375 80.360379 
" clip-path="url(#p246195d251)" style="fill: none; stroke: #b0b0b0; stroke-opacity: 0.15; stroke-width: 0.25; stroke-linecap: square"/>
     </g>
     <g id="line2d_88">
      <g>
       <use xlink:href="#m30bb93dfa9" x="73.784375" y="80.360379" style="stroke: #000000; stroke-width: 0.6"/>
      </g>
     </g>
    </g>
    <g id="text_14">
     <!-- Cumulative importance fraction -->
     <g transform="translate(22.503125 538.169375) rotate(-90) scale(0.2 -0.2)">
      <defs>
       <path id="DejaVuSansMono-43" d="M 3353 166 
Q 3113 38 2859 -26 
Q 2606 -91 2322 -91 
Q 1425 -91 929 543 
Q 434 1178 434 2328 
Q 434 3472 932 4111 
Q 1431 4750 2322 4750 
Q 2606 4750 2859 4686 
Q 3113 4622 3353 4494 
L 3353 3847 
Q 3122 4038 2856 4138 
Q 2591 4238 2322 4238 
Q 1706 4238 1400 3763 
Q 1094 3288 1094 2328 
Q 1094 1372 1400 897 
Q 1706 422 2322 422 
Q 2597 422 2861 522 
Q 3125 622 3353 813 
L 3353 166 
z
" transform="scale(0.015625)"/>
       <path id="DejaVuSansMono-76" d="M 313 3500 
L 909 3500 
L 1925 563 
L 2944 3500 
L 3541 3500 
L 2297 0 
L 1556 0 
L 313 3500 
z
" transform="scale(0.015625)"/>
      </defs>
      <use xlink:href="#DejaVuSansMono-43"/>
      <use xlink:href="#DejaVuSansMono-75" transform="translate(60.205078 0)"/>
      <use xlink:href="#DejaVuSansMono-6d" transform="translate(120.410156 0)"/>
      <use xlink:href="#DejaVuSansMono-75" transform="translate(180.615234 0)"/>
      <use xlink:href="#DejaVuSansMono-6c" transform="translate(240.820312 0)"/>
      <use xlink:href="#DejaVuSansMono-61" transform="translate(301.025391 0)"/>
      <use xlink:href="#DejaVuSansMono-74" transform="translate(361.230469 0)"/>
      <use xlink:href="#DejaVuSansMono-69" transform="translate(421.435547 0)"/>
      <use xlink:href="#DejaVuSansMono-76" transform="translate(481.640625 0)"/>
      <use xlink:href="#DejaVuSansMono-65" transform="translate(541.845703 0)"/>
      <use xlink:href="#DejaVuSansMono-20" transform="translate(602.050781 0)"/>
      <use xlink:href="#DejaVuSansMono-69" transform="translate(662.255859 0)"/>
      <use xlink:href="#DejaVuSansMono-6d" transform="translate(722.460938 0)"/>
      <use xlink:href="#DejaVuSansMono-70" transform="translate(782.666016 0)"/>
      <use xlink:href="#DejaVuSansMono-6f" transform="translate(842.871094 0)"/>
      <use xlink:href="#DejaVuSansMono-72" transform="translate(903.076172 0)"/>
      <use xlink:href="#DejaVuSansMono-74" transform="translate(963.28125 0)"/>
      <use xlink:href="#DejaVuSansMono-61" transform="translate(1023.486328 0)"/>
      <use xlink:href="#DejaVuSansMono-6e" transform="translate(1083.691406 0)"/>
      <use xlink:href="#DejaVuSansMono-63" transform="translate(1143.896484 0)"/>
      <use xlink:href="#DejaVuSansMono-65" transform="translate(1204.101562 0)"/>
      <use xlink:href="#DejaVuSansMono-20" transform="translate(1264.306641 0)"/>
      <use xlink:href="#DejaVuSansMono-66" transform="translate(1324.511719 0)"/>
      <use xlink:href="#DejaVuSansMono-72" transform="translate(1384.716797 0)"/>
      <use xlink:href="#DejaVuSansMono-61" transform="translate(1444.921875 0)"/>
      <use xlink:href="#DejaVuSansMono-63" transform="translate(1505.126953 0)"/>
      <use xlink:href="#DejaVuSansMono-74" transform="translate(1565.332031 0)"/>
      <use xlink:href="#DejaVuSansMono-69" transform="translate(1625.537109 0)"/>
      <use xlink:href="#DejaVuSansMono-6f" transform="translate(1685.742188 0)"/>
      <use xlink:href="#DejaVuSansMono-6e" transform="translate(1745.947266 0)"/>
     </g>
    </g>
   </g>
   <g id="line2d_89">
    <path d="M 114.366193 609.56 
L 926.002557 609.56 
L 926.002557 609.56 
" clip-path="url(#p246195d251)" style="fill: none; stroke: #ea805d; stroke-opacity: 0.7; stroke-width: 2; stroke-linecap: square"/>
   </g>
   <g id="line2d_90">
    <path d="M 114.366193 606.361305 
L 116.284955 604.342365 
L 118.203717 601.400463 
L 120.122479 599.47784 
L 122.041242 597.820179 
L 123.960004 595.31207 
L 125.878766 592.597389 
L 127.797528 591.836695 
L 129.71629 588.778469 
L 131.635052 586.719752 
L 133.553814 585.058943 
L 135.472576 581.976459 
L 137.391338 578.159724 
L 139.3101 576.581212 
L 143.147625 571.342989 
L 145.066387 568.002356 
L 146.985149 565.253562 
L 148.903911 562.742676 
L 150.822673 559.643924 
L 154.660197 554.061479 
L 158.497721 547.903496 
L 160.416483 545.462094 
L 162.335245 542.689456 
L 164.254007 539.619918 
L 166.17277 538.30837 
L 168.091532 535.759423 
L 170.010294 534.920986 
L 173.847818 531.798291 
L 175.76658 529.310649 
L 177.685342 527.932065 
L 181.522866 526.261035 
L 183.441628 524.024616 
L 185.36039 520.826662 
L 187.279153 518.703489 
L 189.197915 515.928019 
L 191.116677 513.544829 
L 193.035439 512.061576 
L 194.954201 509.856009 
L 196.872963 509.459201 
L 198.791725 506.829023 
L 200.710487 505.807143 
L 202.629249 504.26272 
L 204.548011 503.690331 
L 206.466773 502.257103 
L 208.385536 501.00584 
L 210.304298 498.651151 
L 212.22306 497.181716 
L 214.141822 496.186407 
L 216.060584 493.260156 
L 217.979346 491.94245 
L 219.898108 490.203881 
L 221.81687 488.226826 
L 223.735632 486.89247 
L 225.654394 485.410553 
L 227.573156 483.184176 
L 229.491919 481.737309 
L 233.329443 476.848047 
L 235.248205 476.331136 
L 237.166967 473.517898 
L 239.085729 471.445028 
L 241.004491 468.678173 
L 242.923253 466.910847 
L 244.842015 466.283702 
L 248.679539 463.34931 
L 250.598301 463.34931 
L 252.517064 460.912347 
L 254.435826 458.927872 
L 256.354588 457.597398 
L 258.27335 455.612278 
L 260.192112 454.449551 
L 262.110874 452.815592 
L 264.029636 450.847699 
L 265.948398 448.646 
L 267.86716 447.409193 
L 271.704684 444.1161 
L 273.623447 441.583277 
L 277.460971 439.327414 
L 279.379733 436.664259 
L 281.298495 435.313643 
L 283.217257 434.906652 
L 285.136019 431.518073 
L 288.973543 427.91915 
L 290.892305 426.037745 
L 294.72983 422.652381 
L 296.648592 421.825375 
L 298.567354 421.763762 
L 300.486116 419.285012 
L 302.404878 416.153102 
L 304.32364 415.065853 
L 306.242402 413.68769 
L 308.161164 411.921401 
L 310.079926 411.101184 
L 313.91745 408.032554 
L 315.836213 405.400356 
L 317.754975 405.400356 
L 321.592499 400.853153 
L 323.511261 399.630285 
L 325.430023 397.65679 
L 327.348785 396.387209 
L 333.105071 391.431707 
L 335.023833 390.981637 
L 336.942596 388.869594 
L 338.861358 387.242364 
L 340.78012 387.091334 
L 342.698882 385.546445 
L 344.617644 384.496657 
L 346.536406 382.097996 
L 348.455168 381.307564 
L 350.37393 380.814341 
L 352.292692 378.688464 
L 354.211454 377.807896 
L 358.048978 375.120663 
L 359.967741 374.483499 
L 361.886503 373.59129 
L 363.805265 372.369429 
L 365.724027 372.291458 
L 367.642789 371.401066 
L 369.561551 369.538512 
L 371.480313 367.338179 
L 373.399075 366.274077 
L 375.317837 365.702312 
L 379.155361 361.462815 
L 381.074124 359.141268 
L 382.992886 356.43137 
L 384.911648 354.666688 
L 386.83041 353.741644 
L 388.749172 352.022324 
L 392.586696 350.577395 
L 394.505458 350.290957 
L 396.42422 348.401155 
L 398.342982 347.921796 
L 400.261744 346.53818 
L 402.180507 344.171062 
L 404.099269 342.291985 
L 407.936793 337.285699 
L 409.855555 335.760832 
L 411.774317 334.888599 
L 413.693079 333.586725 
L 415.611841 332.614066 
L 417.530603 331.902612 
L 419.449365 330.921392 
L 421.368127 330.921392 
L 423.28689 330.638288 
L 425.205652 329.289881 
L 429.043176 328.50032 
L 430.961938 325.805277 
L 432.8807 324.531521 
L 436.718224 320.772916 
L 438.636986 319.842435 
L 440.555748 318.292183 
L 442.47451 318.292183 
L 446.312035 314.591077 
L 448.230797 314.221876 
L 450.149559 312.006914 
L 452.068321 310.852239 
L 453.987083 309.547931 
L 457.824607 305.083069 
L 459.743369 303.978592 
L 461.662131 302.238994 
L 463.580893 300.130255 
L 465.499655 298.657779 
L 467.418418 298.111879 
L 469.33718 297.766982 
L 471.255942 296.001549 
L 473.174704 294.850839 
L 477.012228 292.165079 
L 478.93099 291.620831 
L 482.768514 290.253708 
L 486.606038 286.959953 
L 488.524801 285.752376 
L 490.443563 283.695579 
L 492.362325 283.063702 
L 494.281087 281.597955 
L 496.199849 281.080594 
L 498.118611 279.436826 
L 500.037373 278.830124 
L 501.956135 277.466185 
L 503.874897 275.340834 
L 505.793659 275.201625 
L 509.631184 272.575766 
L 511.549946 270.890391 
L 513.468708 270.348998 
L 515.38747 268.608979 
L 517.306232 268.109732 
L 519.224994 268.109732 
L 521.143756 267.019675 
L 523.062518 266.129238 
L 524.98128 264.560722 
L 526.900042 263.634446 
L 528.818804 261.617873 
L 530.737566 260.562242 
L 532.656329 260.562242 
L 534.575091 259.276169 
L 538.412615 257.140334 
L 542.250139 254.081317 
L 544.168901 252.539177 
L 546.087663 251.493519 
L 548.006425 249.564755 
L 549.925187 247.821162 
L 551.843949 245.448786 
L 553.762712 244.906251 
L 555.681474 242.873816 
L 557.600236 242.873816 
L 559.518998 242.267203 
L 563.356522 242.225026 
L 565.275284 241.512911 
L 567.194046 241.48245 
L 569.112808 239.610462 
L 571.03157 238.722098 
L 574.869095 237.743792 
L 576.787857 237.743792 
L 578.706619 236.425245 
L 580.625381 234.792381 
L 582.544143 234.657439 
L 584.462905 234.342732 
L 586.381667 233.694904 
L 588.300429 232.790438 
L 590.219191 232.790438 
L 592.137953 232.517638 
L 594.056715 230.594311 
L 595.975478 230.377958 
L 597.89424 229.497194 
L 599.813002 228.043013 
L 601.731764 227.222691 
L 603.650526 227.012917 
L 605.569288 226.379748 
L 607.48805 225.338086 
L 609.406812 224.523052 
L 611.325574 222.763597 
L 613.244336 222.536939 
L 615.163098 221.380282 
L 617.08186 221.344143 
L 619.000623 220.1101 
L 622.838147 216.720065 
L 624.756909 214.714877 
L 626.675671 213.651375 
L 628.594433 211.420011 
L 630.513195 209.474544 
L 632.431957 208.436907 
L 634.350719 207.76024 
L 638.188243 205.277465 
L 640.107006 204.603771 
L 642.025768 204.243944 
L 643.94453 203.303008 
L 645.863292 202.99437 
L 647.782054 202.411159 
L 651.619578 199.478975 
L 653.53834 198.716632 
L 655.457102 197.509986 
L 657.375864 196.019005 
L 659.294626 194.739481 
L 661.213389 193.607817 
L 663.132151 191.510704 
L 665.050913 190.660762 
L 666.969675 189.972529 
L 668.888437 188.33567 
L 670.807199 188.33567 
L 674.644723 186.006103 
L 676.563485 184.100049 
L 678.482247 183.706185 
L 680.401009 182.465023 
L 682.319772 180.617999 
L 684.238534 179.953048 
L 686.157296 177.783447 
L 688.076058 176.990132 
L 689.99482 175.745335 
L 691.913582 174.761531 
L 693.832344 173.529141 
L 695.751106 172.046301 
L 697.669868 170.280417 
L 699.58863 169.229352 
L 703.426154 168.183425 
L 705.344917 168.183425 
L 707.263679 167.865924 
L 709.182441 166.8963 
L 711.101203 165.305644 
L 713.019965 164.153732 
L 714.938727 162.420834 
L 716.857489 160.974854 
L 718.776251 160.305636 
L 720.695013 159.147687 
L 722.613775 158.280531 
L 724.532537 157.666319 
L 726.4513 157.666319 
L 728.370062 156.967782 
L 730.288824 156.967782 
L 732.207586 155.710488 
L 734.126348 155.07786 
L 736.04511 154.139538 
L 737.963872 152.497032 
L 739.882634 152.25968 
L 741.801396 151.242111 
L 743.720158 150.494938 
L 749.476445 150.494938 
L 751.395207 149.402327 
L 753.313969 148.572482 
L 755.232731 148.080896 
L 757.151493 147.950369 
L 759.070255 147.326303 
L 760.989017 146.956983 
L 762.907779 145.783862 
L 764.826541 144.802222 
L 766.745303 144.361915 
L 768.664066 142.883401 
L 770.582828 142.629467 
L 772.50159 141.668704 
L 776.339114 140.660959 
L 778.257876 140.660959 
L 780.176638 139.522626 
L 782.0954 138.688425 
L 784.014162 138.52963 
L 785.932924 137.655505 
L 787.851686 136.090383 
L 789.770449 135.324465 
L 791.689211 134.290343 
L 793.607973 133.915916 
L 795.526735 133.399816 
L 797.445497 133.399816 
L 799.364259 132.948965 
L 801.283021 132.929769 
L 803.201783 131.827725 
L 805.120545 131.445667 
L 807.039307 131.411121 
L 808.958069 131.243283 
L 812.795594 131.243283 
L 816.633118 130.965677 
L 818.55188 129.444265 
L 820.470642 129.135236 
L 822.389404 129.084196 
L 824.308166 128.886979 
L 828.14569 127.175619 
L 830.064452 127.175619 
L 831.983214 126.258566 
L 833.901977 124.73391 
L 837.739501 122.629107 
L 839.658263 122.356097 
L 841.577025 121.918313 
L 843.495787 120.461969 
L 845.414549 119.332198 
L 847.333311 119.312341 
L 849.252073 118.442482 
L 851.170835 118.092808 
L 856.927122 118.033928 
L 858.845884 117.31959 
L 860.764646 117.16455 
L 862.683408 116.852787 
L 864.60217 116.676929 
L 866.520932 116.676929 
L 868.439694 116.134303 
L 870.358456 115.355528 
L 872.277218 115.355528 
L 874.19598 114.624457 
L 876.114743 114.167537 
L 878.033505 113.066875 
L 881.871029 113.052906 
L 883.789791 112.479369 
L 885.708553 112.062674 
L 891.464839 112.006047 
L 893.383601 111.586679 
L 899.139888 111.404632 
L 901.05865 110.65749 
L 904.896174 110.379102 
L 906.814936 109.18216 
L 908.733698 108.534902 
L 910.65246 108.417083 
L 914.489984 108.412727 
L 916.408746 108.247743 
L 918.327508 107.543499 
L 920.246271 107.323991 
L 922.165033 107.323991 
L 926.002557 105.56 
L 926.002557 105.56 
" clip-path="url(#p246195d251)" style="fill: none; stroke: #6a408d; stroke-opacity: 0.7; stroke-width: 2; stroke-linecap: square"/>
   </g>
   <g id="line2d_91">
    <path d="M 114.366193 608.424227 
L 116.284955 607.241253 
L 118.203717 604.754411 
L 120.122479 604.429822 
L 122.041242 603.053292 
L 123.960004 600.908018 
L 125.878766 598.382545 
L 127.797528 597.016367 
L 129.71629 595.309848 
L 131.635052 593.939126 
L 133.553814 593.005986 
L 135.472576 590.928828 
L 139.3101 588.506307 
L 141.228862 586.86688 
L 145.066387 583.950078 
L 146.985149 581.561753 
L 148.903911 580.056106 
L 150.822673 578.748505 
L 152.741435 576.928002 
L 154.660197 575.45841 
L 156.578959 574.231415 
L 158.497721 572.224185 
L 160.416483 570.54014 
L 162.335245 569.117159 
L 164.254007 567.438995 
L 166.17277 565.242154 
L 170.010294 561.782722 
L 171.929056 560.118128 
L 173.847818 557.802777 
L 175.76658 555.846642 
L 177.685342 553.221687 
L 185.36039 548.274195 
L 187.279153 547.425105 
L 189.197915 546.228733 
L 191.116677 544.850518 
L 194.954201 541.185145 
L 196.872963 540.297817 
L 200.710487 538.114022 
L 202.629249 537.142295 
L 204.548011 535.073683 
L 206.466773 533.366484 
L 208.385536 531.834865 
L 210.304298 530.615423 
L 212.22306 528.453339 
L 214.141822 527.060028 
L 216.060584 525.990691 
L 217.979346 524.119267 
L 219.898108 523.041767 
L 221.81687 521.728296 
L 223.735632 520.136333 
L 225.654394 518.087211 
L 229.491919 515.15242 
L 231.410681 513.849509 
L 233.329443 513.014618 
L 235.248205 511.464351 
L 237.166967 510.630105 
L 239.085729 509.464924 
L 241.004491 508.478844 
L 242.923253 506.308665 
L 244.842015 504.746863 
L 246.760777 503.597783 
L 248.679539 501.774995 
L 252.517064 498.867722 
L 254.435826 498.198888 
L 256.354588 496.63463 
L 258.27335 495.497671 
L 260.192112 494.550217 
L 262.110874 492.939982 
L 264.029636 491.535961 
L 265.948398 490.333071 
L 271.704684 485.796314 
L 273.623447 484.624883 
L 277.460971 480.788879 
L 279.379733 479.851638 
L 283.217257 476.826673 
L 285.136019 475.827654 
L 288.973543 472.652605 
L 294.72983 467.324628 
L 296.648592 466.404481 
L 298.567354 465.922147 
L 302.404878 464.180401 
L 304.32364 462.8292 
L 306.242402 461.855445 
L 308.161164 459.941626 
L 310.079926 458.299585 
L 311.998688 456.898726 
L 313.91745 455.221598 
L 315.836213 454.364641 
L 317.754975 452.421623 
L 319.673737 451.11401 
L 321.592499 450.107541 
L 325.430023 447.101186 
L 327.348785 445.903072 
L 329.267547 444.246071 
L 331.186309 442.979764 
L 333.105071 441.489865 
L 335.023833 439.700429 
L 338.861358 436.807493 
L 340.78012 435.803517 
L 342.698882 434.09064 
L 346.536406 431.334645 
L 352.292692 425.422992 
L 354.211454 423.963193 
L 356.130216 423.044187 
L 358.048978 421.439757 
L 359.967741 420.073911 
L 363.805265 416.699813 
L 365.724027 414.885909 
L 367.642789 412.917941 
L 369.561551 411.485014 
L 371.480313 410.829871 
L 373.399075 409.783568 
L 375.317837 408.363603 
L 381.074124 405.536997 
L 382.992886 404.530332 
L 386.83041 402.264105 
L 388.749172 401.263464 
L 392.586696 398.170036 
L 394.505458 397.091229 
L 396.42422 396.386594 
L 400.261744 394.015585 
L 402.180507 393.097781 
L 404.099269 392.439138 
L 407.936793 390.196808 
L 409.855555 389.34927 
L 415.611841 385.56881 
L 417.530603 384.905842 
L 419.449365 383.852374 
L 421.368127 383.159665 
L 423.28689 381.650404 
L 427.124414 378.125982 
L 429.043176 376.036965 
L 430.961938 375.217184 
L 432.8807 373.556127 
L 436.718224 371.043191 
L 438.636986 369.344163 
L 440.555748 367.411208 
L 442.47451 366.006068 
L 444.393272 364.765552 
L 446.312035 363.289651 
L 448.230797 361.511932 
L 450.149559 360.798314 
L 452.068321 359.306012 
L 453.987083 357.95505 
L 457.824607 356.736464 
L 461.662131 354.303105 
L 465.499655 352.923846 
L 469.33718 350.695095 
L 471.255942 350.002085 
L 473.174704 348.539223 
L 478.93099 343.497429 
L 480.849752 342.50254 
L 482.768514 340.403415 
L 484.687276 339.210918 
L 486.606038 338.333189 
L 488.524801 337.215193 
L 490.443563 336.254491 
L 492.362325 334.894157 
L 494.281087 333.923451 
L 496.199849 332.707102 
L 498.118611 331.808885 
L 500.037373 329.973067 
L 501.956135 329.09741 
L 507.712421 325.936315 
L 509.631184 325.088806 
L 511.549946 323.849326 
L 513.468708 322.28811 
L 515.38747 321.777628 
L 519.224994 319.166519 
L 521.143756 318.228227 
L 523.062518 316.663316 
L 524.98128 315.659685 
L 526.900042 314.107451 
L 528.818804 313.215602 
L 532.656329 309.872731 
L 534.575091 308.689367 
L 542.250139 304.701672 
L 544.168901 303.571179 
L 546.087663 302.047875 
L 548.006425 300.992574 
L 549.925187 299.411471 
L 551.843949 298.501417 
L 553.762712 297.024375 
L 555.681474 296.544595 
L 557.600236 294.771261 
L 559.518998 293.627131 
L 561.43776 292.247901 
L 563.356522 291.327093 
L 569.112808 287.810256 
L 571.03157 287.047131 
L 572.950332 285.440524 
L 574.869095 284.330519 
L 576.787857 282.651453 
L 578.706619 281.897011 
L 580.625381 280.353789 
L 582.544143 279.168382 
L 584.462905 278.296 
L 586.381667 276.82112 
L 588.300429 275.843025 
L 590.219191 274.691203 
L 592.137953 273.152728 
L 594.056715 272.228495 
L 595.975478 271.040054 
L 599.813002 269.029339 
L 603.650526 266.102261 
L 605.569288 264.339772 
L 609.406812 262.322778 
L 611.325574 261.573052 
L 613.244336 260.607213 
L 615.163098 259.928833 
L 617.08186 257.813095 
L 619.000623 256.343263 
L 620.919385 255.770927 
L 622.838147 254.967729 
L 624.756909 254.405456 
L 626.675671 252.889842 
L 628.594433 251.788489 
L 630.513195 251.39096 
L 638.188243 246.563237 
L 640.107006 244.776655 
L 642.025768 243.524768 
L 643.94453 242.58218 
L 645.863292 241.281057 
L 651.619578 238.085175 
L 659.294626 234.756963 
L 661.213389 233.683879 
L 663.132151 233.080241 
L 665.050913 231.852657 
L 668.888437 230.101463 
L 670.807199 228.915876 
L 672.725961 228.147374 
L 674.644723 226.678774 
L 676.563485 225.651802 
L 678.482247 224.100679 
L 680.401009 223.298562 
L 682.319772 221.912183 
L 684.238534 220.697847 
L 686.157296 219.751774 
L 688.076058 219.116113 
L 689.99482 218.358696 
L 691.913582 217.363777 
L 693.832344 216.975832 
L 695.751106 216.272969 
L 697.669868 215.061096 
L 699.58863 214.143412 
L 701.507392 212.896963 
L 703.426154 211.933917 
L 705.344917 210.775848 
L 707.263679 209.301389 
L 718.776251 203.766657 
L 720.695013 202.462048 
L 722.613775 201.395242 
L 728.370062 197.395981 
L 730.288824 196.176839 
L 732.207586 195.463432 
L 736.04511 193.424839 
L 737.963872 192.273408 
L 739.882634 191.287652 
L 741.801396 190.619606 
L 743.720158 189.797392 
L 747.557683 187.764266 
L 749.476445 186.55768 
L 751.395207 185.891558 
L 755.232731 182.914432 
L 759.070255 181.00964 
L 760.989017 179.656726 
L 762.907779 178.845837 
L 764.826541 177.34278 
L 766.745303 176.316559 
L 768.664066 175.089786 
L 772.50159 173.368903 
L 776.339114 171.574721 
L 778.257876 170.323886 
L 780.176638 169.554693 
L 782.0954 168.436608 
L 784.014162 167.586065 
L 785.932924 166.400237 
L 787.851686 166.054168 
L 789.770449 164.784107 
L 791.689211 164.016176 
L 793.607973 163.566436 
L 795.526735 162.136047 
L 799.364259 160.515921 
L 801.283021 159.725941 
L 803.201783 158.691188 
L 805.120545 157.340107 
L 808.958069 155.122651 
L 810.876831 154.297913 
L 812.795594 152.919435 
L 814.714356 152.083041 
L 816.633118 150.981628 
L 818.55188 150.325448 
L 820.470642 149.193995 
L 822.389404 148.444088 
L 824.308166 147.318763 
L 826.226928 145.909192 
L 830.064452 144.421095 
L 833.901977 143.242718 
L 835.820739 142.258794 
L 837.739501 141.445262 
L 839.658263 140.060715 
L 843.495787 138.258632 
L 845.414549 137.767286 
L 847.333311 136.819772 
L 849.252073 136.378624 
L 851.170835 135.113699 
L 855.00836 134.044039 
L 856.927122 132.936558 
L 858.845884 131.52891 
L 862.683408 130.086565 
L 864.60217 128.744526 
L 866.520932 127.7439 
L 868.439694 126.953258 
L 870.358456 126.552004 
L 874.19598 125.056817 
L 876.114743 124.096025 
L 878.033505 122.750381 
L 879.952267 122.546315 
L 881.871029 121.400141 
L 883.789791 120.41066 
L 885.708553 119.603375 
L 887.627315 119.037649 
L 889.546077 117.955131 
L 893.383601 116.635142 
L 899.139888 113.538635 
L 901.05865 112.92307 
L 902.977412 112.476786 
L 904.896174 111.845179 
L 908.733698 111.02645 
L 910.65246 110.443209 
L 912.571222 109.468808 
L 914.489984 109.120636 
L 916.408746 108.222809 
L 918.327508 107.825401 
L 926.002557 105.56018 
L 926.002557 105.56018 
" clip-path="url(#p246195d251)" style="fill: none; stroke: #7e7ea5; stroke-opacity: 0.7; stroke-width: 2; stroke-linecap: square"/>
   </g>
   <g id="line2d_92">
    <path d="M 114.366193 608.404907 
L 116.284955 606.719009 
L 118.203717 605.635612 
L 120.122479 604.059208 
L 122.041242 602.678164 
L 123.960004 600.973294 
L 131.635052 595.656131 
L 133.553814 594.144403 
L 135.472576 592.970033 
L 137.391338 591.65879 
L 139.3101 590.959344 
L 141.228862 589.408362 
L 143.147625 587.65485 
L 145.066387 586.224604 
L 148.903911 584.124801 
L 152.741435 581.467793 
L 154.660197 579.837468 
L 156.578959 579.101699 
L 158.497721 578.083556 
L 162.335245 574.903438 
L 164.254007 573.696176 
L 166.17277 572.620726 
L 168.091532 571.21191 
L 170.010294 569.478741 
L 173.847818 566.570097 
L 177.685342 564.334369 
L 179.604104 563.204252 
L 183.441628 559.903171 
L 185.36039 559.106315 
L 187.279153 557.727634 
L 191.116677 554.566321 
L 193.035439 552.768579 
L 194.954201 551.721123 
L 198.791725 548.583175 
L 200.710487 546.958971 
L 202.629249 545.996706 
L 204.548011 544.311835 
L 206.466773 543.085468 
L 208.385536 542.037122 
L 210.304298 541.212279 
L 212.22306 539.866582 
L 214.141822 538.952383 
L 216.060584 537.872412 
L 217.979346 536.25565 
L 219.898108 535.299747 
L 223.735632 532.860238 
L 225.654394 531.728251 
L 231.410681 527.763304 
L 235.248205 524.399637 
L 237.166967 522.983638 
L 239.085729 521.341169 
L 242.923253 519.248818 
L 244.842015 517.151818 
L 246.760777 516.102293 
L 248.679539 514.726533 
L 250.598301 512.874155 
L 252.517064 511.747012 
L 256.354588 509.843497 
L 260.192112 506.78213 
L 262.110874 505.804875 
L 264.029636 504.401035 
L 267.86716 501.789865 
L 269.785922 500.368676 
L 273.623447 497.856664 
L 275.542209 496.754875 
L 281.298495 492.456484 
L 283.217257 491.265632 
L 285.136019 490.428833 
L 288.973543 487.879337 
L 290.892305 486.915511 
L 292.811067 485.603858 
L 294.72983 484.729913 
L 296.648592 483.085026 
L 300.486116 480.225225 
L 302.404878 479.156962 
L 304.32364 477.357943 
L 306.242402 475.987621 
L 308.161164 475.012018 
L 310.079926 473.308995 
L 311.998688 472.239365 
L 313.91745 470.939443 
L 315.836213 469.972793 
L 317.754975 468.089615 
L 319.673737 466.984192 
L 325.430023 462.888095 
L 327.348785 461.158891 
L 329.267547 460.021985 
L 331.186309 458.55771 
L 333.105071 457.32918 
L 335.023833 455.667027 
L 336.942596 454.710365 
L 338.861358 453.37857 
L 340.78012 451.877826 
L 342.698882 450.782481 
L 346.536406 448.958483 
L 350.37393 446.323387 
L 352.292692 445.778553 
L 354.211454 444.1421 
L 356.130216 443.119379 
L 358.048978 441.860958 
L 359.967741 440.036675 
L 361.886503 438.586955 
L 363.805265 437.401068 
L 365.724027 435.638684 
L 367.642789 434.678763 
L 369.561551 433.593647 
L 371.480313 432.074983 
L 375.317837 428.53844 
L 379.155361 425.930304 
L 381.074124 424.754661 
L 382.992886 423.834063 
L 384.911648 422.547374 
L 386.83041 420.702288 
L 390.667934 417.713957 
L 392.586696 416.801756 
L 394.505458 414.891707 
L 396.42422 413.312241 
L 398.342982 412.19755 
L 400.261744 410.707921 
L 402.180507 409.567124 
L 404.099269 407.959555 
L 406.018031 407.128644 
L 407.936793 406.176338 
L 411.774317 402.874277 
L 415.611841 399.969175 
L 417.530603 398.987519 
L 423.28689 393.819208 
L 425.205652 392.808158 
L 427.124414 391.342036 
L 429.043176 390.19822 
L 432.8807 388.126222 
L 438.636986 384.751252 
L 440.555748 384.120833 
L 442.47451 382.893609 
L 444.393272 381.847982 
L 446.312035 380.949254 
L 448.230797 379.650488 
L 450.149559 378.643673 
L 453.987083 376.160583 
L 459.743369 372.029578 
L 461.662131 370.979565 
L 463.580893 369.670601 
L 469.33718 364.894066 
L 471.255942 363.422687 
L 473.174704 362.373214 
L 477.012228 360.645918 
L 478.93099 359.291847 
L 480.849752 357.645856 
L 482.768514 356.736644 
L 484.687276 355.676777 
L 486.606038 354.304277 
L 490.443563 352.251504 
L 492.362325 350.760223 
L 494.281087 349.582326 
L 496.199849 348.081372 
L 498.118611 346.780999 
L 500.037373 345.664536 
L 501.956135 344.21384 
L 503.874897 343.320459 
L 505.793659 341.561755 
L 507.712421 340.601683 
L 509.631184 339.103372 
L 511.549946 338.1351 
L 515.38747 335.351407 
L 517.306232 334.486745 
L 519.224994 332.66826 
L 521.143756 331.149852 
L 524.98128 329.170138 
L 528.818804 327.043676 
L 530.737566 326.096792 
L 532.656329 324.607914 
L 534.575091 323.421907 
L 536.493853 322.001431 
L 538.412615 320.969202 
L 540.331377 319.616168 
L 546.087663 316.382765 
L 548.006425 315.462948 
L 549.925187 314.877365 
L 551.843949 314.101713 
L 553.762712 312.774304 
L 555.681474 312.067386 
L 559.518998 309.418095 
L 561.43776 307.733501 
L 563.356522 305.81435 
L 565.275284 304.363864 
L 567.194046 302.621172 
L 569.112808 301.8895 
L 571.03157 300.471548 
L 572.950332 299.262259 
L 578.706619 294.96196 
L 580.625381 294.345554 
L 582.544143 292.622419 
L 586.381667 290.289997 
L 588.300429 288.830289 
L 590.219191 287.012885 
L 592.137953 285.733481 
L 594.056715 284.79618 
L 595.975478 283.649256 
L 597.89424 282.220339 
L 599.813002 281.433693 
L 601.731764 280.401463 
L 603.650526 278.980387 
L 605.569288 278.025423 
L 609.406812 275.279881 
L 611.325574 274.310347 
L 613.244336 273.120614 
L 615.163098 271.620771 
L 617.08186 271.001873 
L 619.000623 270.186387 
L 620.919385 268.914613 
L 624.756909 266.705869 
L 626.675671 265.842079 
L 628.594433 265.291672 
L 630.513195 264.034799 
L 632.431957 262.93651 
L 634.350719 261.628207 
L 638.188243 259.634885 
L 640.107006 258.81252 
L 643.94453 256.201922 
L 647.782054 253.37524 
L 649.700816 252.532087 
L 651.619578 251.513136 
L 653.53834 250.119397 
L 657.375864 247.747712 
L 661.213389 245.505863 
L 663.132151 244.570395 
L 665.050913 243.457176 
L 668.888437 241.558693 
L 670.807199 239.993692 
L 672.725961 238.715489 
L 676.563485 237.416348 
L 680.401009 235.234761 
L 682.319772 234.891996 
L 684.238534 233.781391 
L 686.157296 233.283887 
L 689.99482 230.878616 
L 691.913582 229.772066 
L 693.832344 228.319598 
L 695.751106 227.256517 
L 697.669868 226.765351 
L 701.507392 224.503585 
L 705.344917 221.655815 
L 709.182441 219.457616 
L 711.101203 218.598241 
L 713.019965 217.592808 
L 714.938727 216.979527 
L 716.857489 216.066199 
L 718.776251 214.735124 
L 720.695013 214.025923 
L 732.207586 207.566237 
L 734.126348 206.401769 
L 736.04511 205.470837 
L 737.963872 204.947678 
L 739.882634 203.524649 
L 743.720158 201.010751 
L 747.557683 197.989135 
L 751.395207 195.759213 
L 753.313969 195.135838 
L 755.232731 194.2743 
L 759.070255 191.779779 
L 762.907779 189.800396 
L 764.826541 189.270357 
L 766.745303 188.063892 
L 768.664066 187.594235 
L 770.582828 186.140835 
L 772.50159 185.120653 
L 774.420352 183.858762 
L 776.339114 183.044839 
L 778.257876 181.807522 
L 782.0954 179.927273 
L 784.014162 178.465462 
L 785.932924 177.852721 
L 787.851686 176.785014 
L 789.770449 176.031623 
L 791.689211 175.025439 
L 793.607973 173.408016 
L 795.526735 172.652612 
L 799.364259 170.071634 
L 801.283021 168.545986 
L 805.120545 166.995134 
L 807.039307 165.736968 
L 808.958069 164.621677 
L 810.876831 163.162028 
L 812.795594 162.227371 
L 814.714356 160.884161 
L 816.633118 159.697612 
L 818.55188 158.953383 
L 820.470642 157.934552 
L 822.389404 156.472651 
L 824.308166 155.39524 
L 826.226928 154.880703 
L 828.14569 153.903058 
L 830.064452 152.432865 
L 831.983214 151.357407 
L 835.820739 149.975624 
L 837.739501 149.582511 
L 839.658263 148.837862 
L 841.577025 147.811251 
L 843.495787 147.33156 
L 845.414549 146.355537 
L 849.252073 143.975892 
L 851.170835 143.254915 
L 855.00836 140.179826 
L 856.927122 139.101395 
L 858.845884 138.646308 
L 860.764646 137.294746 
L 862.683408 136.119403 
L 864.60217 135.336001 
L 866.520932 134.187544 
L 868.439694 133.268959 
L 872.277218 130.829352 
L 876.114743 129.070198 
L 878.033505 128.865861 
L 879.952267 127.346701 
L 881.871029 126.390295 
L 883.789791 125.637384 
L 885.708553 124.658417 
L 887.627315 123.303341 
L 889.546077 122.32906 
L 891.464839 121.046381 
L 895.302363 119.055252 
L 897.221125 118.449722 
L 901.05865 116.712527 
L 902.977412 115.417622 
L 904.896174 114.568431 
L 906.814936 113.872147 
L 910.65246 111.900995 
L 912.571222 111.045405 
L 914.489984 109.72824 
L 918.327508 108.196374 
L 920.246271 107.319335 
L 922.165033 106.309937 
L 924.083795 105.77395 
L 926.002557 105.560481 
L 926.002557 105.560481 
" clip-path="url(#p246195d251)" style="fill: none; stroke: #95bb63; stroke-opacity: 0.7; stroke-width: 2; stroke-linecap: square"/>
   </g>
   <g id="line2d_93">
    <path d="M 114.366193 597.389734 
L 116.284955 586.872787 
L 118.203717 586.872787 
L 120.122479 570.10652 
L 122.041242 557.876662 
L 123.960004 557.48065 
L 125.878766 557.48065 
L 127.797528 540.217668 
L 129.71629 537.525997 
L 131.635052 532.792684 
L 133.553814 521.495075 
L 135.472576 521.495075 
L 137.391338 520.549896 
L 139.3101 504.508948 
L 141.228862 503.577063 
L 146.985149 503.577063 
L 148.903911 497.122581 
L 150.822673 494.216712 
L 154.660197 494.21491 
L 156.578959 486.841663 
L 164.254007 486.841663 
L 166.17277 481.25457 
L 168.091532 481.25457 
L 170.010294 476.202082 
L 171.929056 472.383425 
L 175.76658 472.383425 
L 177.685342 471.209134 
L 179.604104 459.187123 
L 181.522866 450.572752 
L 183.441628 449.891548 
L 185.36039 445.710691 
L 187.279153 439.063161 
L 193.035439 439.063161 
L 194.954201 437.280214 
L 196.872963 424.423927 
L 198.791725 424.423927 
L 200.710487 416.918359 
L 202.629249 405.847933 
L 204.548011 403.677401 
L 206.466773 399.266357 
L 208.385536 391.466915 
L 210.304298 384.899143 
L 212.22306 384.899143 
L 214.141822 374.243594 
L 216.060584 371.573875 
L 217.979346 371.573875 
L 219.898108 362.898671 
L 221.81687 359.493541 
L 223.735632 354.207125 
L 225.654394 352.552242 
L 227.573156 352.552242 
L 229.491919 348.821846 
L 231.410681 347.729235 
L 233.329443 347.690963 
L 235.248205 342.803788 
L 239.085729 342.803788 
L 241.004491 340.350303 
L 244.842015 340.350303 
L 246.760777 332.898011 
L 248.679539 332.898011 
L 250.598301 327.615321 
L 252.517064 327.615321 
L 254.435826 318.615422 
L 256.354588 313.36899 
L 258.27335 312.989516 
L 260.192112 307.040612 
L 264.029636 307.040612 
L 265.948398 305.676673 
L 267.86716 302.746381 
L 269.785922 302.746381 
L 271.704684 300.632566 
L 273.623447 300.632566 
L 275.542209 298.402313 
L 279.379733 298.402313 
L 281.298495 297.823819 
L 283.217257 295.231996 
L 285.136019 294.872439 
L 288.973543 294.872439 
L 290.892305 293.965269 
L 292.811067 293.965269 
L 294.72983 292.787282 
L 296.648592 287.273909 
L 298.567354 273.894013 
L 300.486116 273.894013 
L 302.404878 273.624608 
L 304.32364 273.577774 
L 306.242402 268.862463 
L 310.079926 268.862463 
L 311.998688 265.533951 
L 313.91745 265.533951 
L 315.836213 262.598312 
L 338.861358 262.598312 
L 340.78012 254.900317 
L 342.698882 254.900317 
L 344.617644 249.144395 
L 346.536406 249.144395 
L 350.37393 248.519308 
L 352.292692 248.058664 
L 354.211454 248.058664 
L 356.130216 242.765068 
L 359.967741 242.765068 
L 361.886503 242.512215 
L 365.724027 242.512215 
L 367.642789 240.595828 
L 373.399075 240.595828 
L 375.317837 240.205959 
L 390.667934 240.205959 
L 392.586696 235.084287 
L 394.505458 232.99853 
L 396.42422 232.985462 
L 398.342982 226.103193 
L 413.693079 226.103193 
L 415.611841 225.015209 
L 417.530603 214.804518 
L 419.449365 214.804518 
L 421.368127 207.156662 
L 427.124414 207.156662 
L 429.043176 206.408918 
L 440.555748 206.400357 
L 442.47451 200.358928 
L 446.312035 200.358928 
L 448.230797 199.06952 
L 450.149559 196.768431 
L 463.580893 196.768431 
L 465.499655 196.501519 
L 467.418418 195.584977 
L 469.33718 191.985047 
L 471.255942 191.985047 
L 473.174704 190.849748 
L 478.93099 190.849748 
L 480.849752 189.828904 
L 492.362325 189.828304 
L 496.199849 187.098263 
L 503.874897 187.098263 
L 505.793659 185.579495 
L 507.712421 183.02357 
L 513.468708 183.02357 
L 515.38747 182.5732 
L 517.306232 176.840018 
L 521.143756 176.840018 
L 523.062518 175.298148 
L 524.98128 174.085765 
L 536.493853 174.085765 
L 538.412615 171.006561 
L 553.762712 171.006561 
L 555.681474 166.087754 
L 557.600236 166.087754 
L 559.518998 163.764194 
L 561.43776 163.758697 
L 563.356522 162.796793 
L 567.194046 162.796793 
L 569.112808 161.260601 
L 571.03157 159.072044 
L 572.950332 159.072044 
L 574.869095 157.847074 
L 582.544143 157.847074 
L 584.462905 153.664775 
L 590.219191 153.664775 
L 592.137953 153.04176 
L 594.056715 153.04176 
L 595.975478 148.818726 
L 597.89424 148.818726 
L 599.813002 146.014906 
L 607.48805 146.014906 
L 609.406812 145.73781 
L 611.325574 144.425061 
L 613.244336 139.507605 
L 615.163098 139.507605 
L 617.08186 136.661007 
L 640.107006 136.59675 
L 643.94453 136.534505 
L 651.619578 136.534505 
L 653.53834 135.708806 
L 655.457102 135.708806 
L 657.375864 135.381422 
L 665.050913 135.353334 
L 666.969675 131.238116 
L 728.370062 131.238116 
L 730.288824 128.892326 
L 732.207586 128.892326 
L 734.126348 128.360095 
L 736.04511 127.983384 
L 747.557683 127.983384 
L 749.476445 125.638105 
L 755.232731 125.638105 
L 757.151493 124.500283 
L 774.420352 124.488838 
L 776.339114 121.004595 
L 784.014162 121.004595 
L 785.932924 119.583248 
L 795.526735 119.583248 
L 797.445497 117.777711 
L 803.201783 117.777711 
L 805.120545 117.571451 
L 810.876831 117.571451 
L 812.795594 116.901784 
L 835.820739 116.901784 
L 837.739501 113.991799 
L 866.520932 113.991799 
L 868.439694 113.377226 
L 870.358456 113.377226 
L 872.277218 113.220323 
L 878.033505 113.220323 
L 879.952267 111.56517 
L 885.708553 111.56517 
L 887.627315 111.281646 
L 895.302363 111.281646 
L 897.221125 108.906326 
L 902.977412 108.906326 
L 904.896174 106.934093 
L 908.733698 106.934093 
L 910.65246 105.560421 
L 926.002557 105.560421 
L 926.002557 105.560421 
" clip-path="url(#p246195d251)" style="fill: none; stroke: #487c7d; stroke-opacity: 0.7; stroke-width: 2; stroke-linecap: square"/>
   </g>
   <g id="line2d_94">
    <path d="M 114.366193 609.56 
L 116.284955 609.56 
L 118.203717 569.55367 
L 129.71629 569.55367 
L 131.635052 493.5971 
L 141.228862 493.5971 
L 143.147625 471.603914 
L 235.248205 471.603914 
L 237.166967 459.980048 
L 260.192112 459.980048 
L 262.110874 401.320286 
L 281.298495 401.320286 
L 283.217257 315.718895 
L 354.211454 315.718895 
L 356.130216 297.252865 
L 390.667934 297.252865 
L 392.586696 287.448536 
L 438.636986 287.448536 
L 440.555748 279.126295 
L 444.393272 279.126295 
L 446.312035 277.235142 
L 486.606038 277.235142 
L 488.524801 227.85667 
L 503.874897 227.85667 
L 505.793659 217.880688 
L 582.544143 217.880688 
L 584.462905 186.954158 
L 599.813002 186.954158 
L 601.731764 177.575175 
L 640.107006 177.575175 
L 642.025768 160.760994 
L 686.157296 160.760994 
L 688.076058 128.236778 
L 734.126348 128.236778 
L 736.04511 127.567891 
L 835.820739 127.567891 
L 837.739501 123.473642 
L 849.252073 123.473642 
L 851.170835 115.647193 
L 870.358456 115.647193 
L 872.277218 105.5603 
L 926.002557 105.5603 
L 926.002557 105.5603 
" clip-path="url(#p246195d251)" style="fill: none; stroke: #4897dc; stroke-opacity: 0.7; stroke-width: 2; stroke-linecap: square"/>
   </g>
   <g id="line2d_95">
    <path d="M 114.366193 607.42135 
L 122.041242 599.423305 
L 131.635052 589.724907 
L 143.147625 578.842418 
L 154.660197 568.178289 
L 166.17277 557.841668 
L 173.847818 551.121589 
L 187.279153 539.667908 
L 202.629249 526.785531 
L 219.898108 512.696839 
L 233.329443 502.00519 
L 250.598301 488.599128 
L 271.704684 472.585029 
L 292.811067 456.836467 
L 313.91745 441.371504 
L 329.267547 430.333403 
L 348.455168 416.904916 
L 369.561551 402.376548 
L 388.749172 389.384147 
L 411.774317 374.003974 
L 436.718224 357.594937 
L 457.824607 343.966965 
L 477.012228 331.872151 
L 503.874897 315.305415 
L 528.818804 300.239513 
L 557.600236 283.139675 
L 580.625381 269.698406 
L 609.406812 253.193073 
L 630.513195 241.343151 
L 649.700816 230.772483 
L 670.807199 219.388942 
L 686.157296 211.385133 
L 714.938727 196.703543 
L 734.126348 187.112533 
L 755.232731 176.796249 
L 780.176638 164.928422 
L 795.526735 157.815351 
L 812.795594 150.025402 
L 831.983214 141.600632 
L 851.170835 133.529562 
L 872.277218 124.853292 
L 887.627315 118.788431 
L 899.139888 114.423634 
L 912.571222 109.667287 
L 920.246271 107.203257 
L 924.083795 106.040321 
L 926.002557 105.56018 
L 926.002557 105.56018 
" clip-path="url(#p246195d251)" style="fill: none; stroke: #000000; stroke-width: 3; stroke-linecap: square"/>
   </g>
   <g id="line2d_96">
    <path d="M 73.784375 206.360288 
L 966.584375 206.360288 
" clip-path="url(#p246195d251)" style="fill: none; stroke-dasharray: 5.55,2.4; stroke-dashoffset: 0; stroke: #ff0000; stroke-width: 1.5"/>
   </g>
   <g id="patch_3">
    <path d="M 73.784375 634.76 
L 73.784375 80.36 
" style="fill: none; stroke: #000000; stroke-width: 0.8; stroke-linejoin: miter; stroke-linecap: square"/>
   </g>
   <g id="patch_4">
    <path d="M 966.584375 634.76 
L 966.584375 80.36 
" style="fill: none; stroke: #000000; stroke-width: 0.8; stroke-linejoin: miter; stroke-linecap: square"/>
   </g>
   <g id="patch_5">
    <path d="M 73.784375 634.76 
L 966.584375 634.76 
" style="fill: none; stroke: #000000; stroke-width: 0.8; stroke-linejoin: miter; stroke-linecap: square"/>
   </g>
   <g id="patch_6">
    <path d="M 73.784375 80.36 
L 966.584375 80.36 
" style="fill: none; stroke: #000000; stroke-width: 0.8; stroke-linejoin: miter; stroke-linecap: square"/>
   </g>
   <g id="legend_1">
    <g id="line2d_97">
     <path d="M 101.351562 23.503125 
L 121.351562 23.503125 
L 141.351562 23.503125 
" style="fill: none; stroke: #ea805d; stroke-opacity: 0.7; stroke-width: 2; stroke-linecap: square"/>
    </g>
    <g id="text_15">
     <!-- Layer 1 -->
     <g transform="translate(157.351562 30.503125) scale(0.2 -0.2)">
      <defs>
       <path id="DejaVuSansMono-4c" d="M 672 4666 
L 1306 4666 
L 1306 531 
L 3559 531 
L 3559 0 
L 672 0 
L 672 4666 
z
" transform="scale(0.015625)"/>
      </defs>
      <use xlink:href="#DejaVuSansMono-4c"/>
      <use xlink:href="#DejaVuSansMono-61" transform="translate(60.205078 0)"/>
      <use xlink:href="#DejaVuSansMono-79" transform="translate(120.410156 0)"/>
      <use xlink:href="#DejaVuSansMono-65" transform="translate(180.615234 0)"/>
      <use xlink:href="#DejaVuSansMono-72" transform="translate(240.820312 0)"/>
      <use xlink:href="#DejaVuSansMono-20" transform="translate(301.025391 0)"/>
      <use xlink:href="#DejaVuSansMono-31" transform="translate(361.230469 0)"/>
     </g>
    </g>
    <g id="line2d_98">
     <path d="M 101.351562 52.965625 
L 121.351562 52.965625 
L 141.351562 52.965625 
" style="fill: none; stroke: #6a408d; stroke-opacity: 0.7; stroke-width: 2; stroke-linecap: square"/>
    </g>
    <g id="text_16">
     <!-- Layer 2.1 -->
     <g transform="translate(157.351562 59.965625) scale(0.2 -0.2)">
      <use xlink:href="#DejaVuSansMono-4c"/>
      <use xlink:href="#DejaVuSansMono-61" transform="translate(60.205078 0)"/>
      <use xlink:href="#DejaVuSansMono-79" transform="translate(120.410156 0)"/>
      <use xlink:href="#DejaVuSansMono-65" transform="translate(180.615234 0)"/>
      <use xlink:href="#DejaVuSansMono-72" transform="translate(240.820312 0)"/>
      <use xlink:href="#DejaVuSansMono-20" transform="translate(301.025391 0)"/>
      <use xlink:href="#DejaVuSansMono-32" transform="translate(361.230469 0)"/>
      <use xlink:href="#DejaVuSansMono-2e" transform="translate(421.435547 0)"/>
      <use xlink:href="#DejaVuSansMono-31" transform="translate(481.640625 0)"/>
     </g>
    </g>
    <g id="line2d_99">
     <path d="M 305.717188 23.503125 
L 325.717188 23.503125 
L 345.717188 23.503125 
" style="fill: none; stroke: #7e7ea5; stroke-opacity: 0.7; stroke-width: 2; stroke-linecap: square"/>
    </g>
    <g id="text_17">
     <!-- Layer 2.2 -->
     <g transform="translate(361.717188 30.503125) scale(0.2 -0.2)">
      <use xlink:href="#DejaVuSansMono-4c"/>
      <use xlink:href="#DejaVuSansMono-61" transform="translate(60.205078 0)"/>
      <use xlink:href="#DejaVuSansMono-79" transform="translate(120.410156 0)"/>
      <use xlink:href="#DejaVuSansMono-65" transform="translate(180.615234 0)"/>
      <use xlink:href="#DejaVuSansMono-72" transform="translate(240.820312 0)"/>
      <use xlink:href="#DejaVuSansMono-20" transform="translate(301.025391 0)"/>
      <use xlink:href="#DejaVuSansMono-32" transform="translate(361.230469 0)"/>
      <use xlink:href="#DejaVuSansMono-2e" transform="translate(421.435547 0)"/>
      <use xlink:href="#DejaVuSansMono-32" transform="translate(481.640625 0)"/>
     </g>
    </g>
    <g id="line2d_100">
     <path d="M 305.717188 52.965625 
L 325.717188 52.965625 
L 345.717188 52.965625 
" style="fill: none; stroke: #95bb63; stroke-opacity: 0.7; stroke-width: 2; stroke-linecap: square"/>
    </g>
    <g id="text_18">
     <!-- Layer 3.1 -->
     <g transform="translate(361.717188 59.965625) scale(0.2 -0.2)">
      <defs>
       <path id="DejaVuSansMono-33" d="M 2425 2497 
Q 2884 2375 3128 2064 
Q 3372 1753 3372 1288 
Q 3372 644 2939 276 
Q 2506 -91 1741 -91 
Q 1419 -91 1084 -31 
Q 750 28 428 141 
L 428 769 
Q 747 603 1056 522 
Q 1366 441 1672 441 
Q 2191 441 2469 675 
Q 2747 909 2747 1350 
Q 2747 1756 2469 1995 
Q 2191 2234 1716 2234 
L 1234 2234 
L 1234 2753 
L 1716 2753 
Q 2150 2753 2394 2943 
Q 2638 3134 2638 3475 
Q 2638 3834 2411 4026 
Q 2184 4219 1766 4219 
Q 1488 4219 1191 4156 
Q 894 4094 569 3969 
L 569 4550 
Q 947 4650 1242 4700 
Q 1538 4750 1766 4750 
Q 2447 4750 2855 4408 
Q 3263 4066 3263 3500 
Q 3263 3116 3048 2859 
Q 2834 2603 2425 2497 
z
" transform="scale(0.015625)"/>
      </defs>
      <use xlink:href="#DejaVuSansMono-4c"/>
      <use xlink:href="#DejaVuSansMono-61" transform="translate(60.205078 0)"/>
      <use xlink:href="#DejaVuSansMono-79" transform="translate(120.410156 0)"/>
      <use xlink:href="#DejaVuSansMono-65" transform="translate(180.615234 0)"/>
      <use xlink:href="#DejaVuSansMono-72" transform="translate(240.820312 0)"/>
      <use xlink:href="#DejaVuSansMono-20" transform="translate(301.025391 0)"/>
      <use xlink:href="#DejaVuSansMono-33" transform="translate(361.230469 0)"/>
      <use xlink:href="#DejaVuSansMono-2e" transform="translate(421.435547 0)"/>
      <use xlink:href="#DejaVuSansMono-31" transform="translate(481.640625 0)"/>
     </g>
    </g>
    <g id="line2d_101">
     <path d="M 510.082813 23.503125 
L 530.082813 23.503125 
L 550.082813 23.503125 
" style="fill: none; stroke: #487c7d; stroke-opacity: 0.7; stroke-width: 2; stroke-linecap: square"/>
    </g>
    <g id="text_19">
     <!-- Layer 3.2 -->
     <g transform="translate(566.082813 30.503125) scale(0.2 -0.2)">
      <use xlink:href="#DejaVuSansMono-4c"/>
      <use xlink:href="#DejaVuSansMono-61" transform="translate(60.205078 0)"/>
      <use xlink:href="#DejaVuSansMono-79" transform="translate(120.410156 0)"/>
      <use xlink:href="#DejaVuSansMono-65" transform="translate(180.615234 0)"/>
      <use xlink:href="#DejaVuSansMono-72" transform="translate(240.820312 0)"/>
      <use xlink:href="#DejaVuSansMono-20" transform="translate(301.025391 0)"/>
      <use xlink:href="#DejaVuSansMono-33" transform="translate(361.230469 0)"/>
      <use xlink:href="#DejaVuSansMono-2e" transform="translate(421.435547 0)"/>
      <use xlink:href="#DejaVuSansMono-32" transform="translate(481.640625 0)"/>
     </g>
    </g>
    <g id="line2d_102">
     <path d="M 510.082813 52.965625 
L 530.082813 52.965625 
L 550.082813 52.965625 
" style="fill: none; stroke: #4897dc; stroke-opacity: 0.7; stroke-width: 2; stroke-linecap: square"/>
    </g>
    <g id="text_20">
     <!-- Layer 3.3 -->
     <g transform="translate(566.082813 59.965625) scale(0.2 -0.2)">
      <use xlink:href="#DejaVuSansMono-4c"/>
      <use xlink:href="#DejaVuSansMono-61" transform="translate(60.205078 0)"/>
      <use xlink:href="#DejaVuSansMono-79" transform="translate(120.410156 0)"/>
      <use xlink:href="#DejaVuSansMono-65" transform="translate(180.615234 0)"/>
      <use xlink:href="#DejaVuSansMono-72" transform="translate(240.820312 0)"/>
      <use xlink:href="#DejaVuSansMono-20" transform="translate(301.025391 0)"/>
      <use xlink:href="#DejaVuSansMono-33" transform="translate(361.230469 0)"/>
      <use xlink:href="#DejaVuSansMono-2e" transform="translate(421.435547 0)"/>
      <use xlink:href="#DejaVuSansMono-33" transform="translate(481.640625 0)"/>
     </g>
    </g>
    <g id="line2d_103">
     <path d="M 714.448438 23.503125 
L 734.448438 23.503125 
L 754.448438 23.503125 
" style="fill: none; stroke: #000000; stroke-width: 3; stroke-linecap: square"/>
    </g>
    <g id="text_21">
     <!-- Mean CAM -->
     <g transform="translate(770.448438 30.503125) scale(0.2 -0.2)">
      <defs>
       <path id="DejaVuSansMono-4d" d="M 269 4666 
L 1113 4666 
L 1919 2291 
L 2731 4666 
L 3578 4666 
L 3578 0 
L 2994 0 
L 2994 4122 
L 2163 1663 
L 1684 1663 
L 850 4122 
L 850 0 
L 269 0 
L 269 4666 
z
" transform="scale(0.015625)"/>
       <path id="DejaVuSansMono-41" d="M 1925 4109 
L 1259 1722 
L 2591 1722 
L 1925 4109 
z
M 1544 4666 
L 2309 4666 
L 3738 0 
L 3084 0 
L 2741 1216 
L 1106 1216 
L 769 0 
L 116 0 
L 1544 4666 
z
" transform="scale(0.015625)"/>
      </defs>
      <use xlink:href="#DejaVuSansMono-4d"/>
      <use xlink:href="#DejaVuSansMono-65" transform="translate(60.205078 0)"/>
      <use xlink:href="#DejaVuSansMono-61" transform="translate(120.410156 0)"/>
      <use xlink:href="#DejaVuSansMono-6e" transform="translate(180.615234 0)"/>
      <use xlink:href="#DejaVuSansMono-20" transform="translate(240.820312 0)"/>
      <use xlink:href="#DejaVuSansMono-43" transform="translate(301.025391 0)"/>
      <use xlink:href="#DejaVuSansMono-41" transform="translate(361.230469 0)"/>
      <use xlink:href="#DejaVuSansMono-4d" transform="translate(421.435547 0)"/>
     </g>
    </g>
    <g id="line2d_104">
     <path d="M 714.448438 52.965625 
L 734.448438 52.965625 
L 754.448438 52.965625 
" style="fill: none; stroke-dasharray: 5.55,2.4; stroke-dashoffset: 0; stroke: #ff0000; stroke-width: 1.5"/>
    </g>
    <g id="text_22">
     <!-- 80% importance -->
     <g transform="translate(770.448438 59.965625) scale(0.2 -0.2)">
      <defs>
       <path id="DejaVuSansMono-25" d="M 2175 997 
Q 2175 753 2339 587 
Q 2503 422 2747 422 
Q 2988 422 3155 589 
Q 3322 756 3322 997 
Q 3322 1238 3153 1406 
Q 2984 1575 2747 1575 
Q 2503 1575 2339 1409 
Q 2175 1244 2175 997 
z
M 1753 997 
Q 1753 1419 2040 1708 
Q 2328 1997 2747 1997 
Q 2947 1997 3126 1922 
Q 3306 1847 3450 1703 
Q 3594 1556 3672 1375 
Q 3750 1194 3750 997 
Q 3750 581 3459 290 
Q 3169 0 2747 0 
Q 2322 0 2037 286 
Q 1753 572 1753 997 
z
M 378 1453 
L 269 1753 
L 3525 3059 
L 3653 2759 
L 378 1453 
z
M 525 3475 
Q 525 3228 689 3064 
Q 853 2900 1100 2900 
Q 1341 2900 1509 3067 
Q 1678 3234 1678 3475 
Q 1678 3716 1509 3883 
Q 1341 4050 1100 4050 
Q 859 4050 692 3884 
Q 525 3719 525 3475 
z
M 103 3475 
Q 103 3897 390 4186 
Q 678 4475 1100 4475 
Q 1300 4475 1483 4400 
Q 1666 4325 1806 4184 
Q 1947 4044 2023 3861 
Q 2100 3678 2100 3475 
Q 2100 3056 1809 2767 
Q 1519 2478 1100 2478 
Q 678 2478 390 2765 
Q 103 3053 103 3475 
z
" transform="scale(0.015625)"/>
      </defs>
      <use xlink:href="#DejaVuSansMono-38"/>
      <use xlink:href="#DejaVuSansMono-30" transform="translate(60.205078 0)"/>
      <use xlink:href="#DejaVuSansMono-25" transform="translate(120.410156 0)"/>
      <use xlink:href="#DejaVuSansMono-20" transform="translate(180.615234 0)"/>
      <use xlink:href="#DejaVuSansMono-69" transform="translate(240.820312 0)"/>
      <use xlink:href="#DejaVuSansMono-6d" transform="translate(301.025391 0)"/>
      <use xlink:href="#DejaVuSansMono-70" transform="translate(361.230469 0)"/>
      <use xlink:href="#DejaVuSansMono-6f" transform="translate(421.435547 0)"/>
      <use xlink:href="#DejaVuSansMono-72" transform="translate(481.640625 0)"/>
      <use xlink:href="#DejaVuSansMono-74" transform="translate(541.845703 0)"/>
      <use xlink:href="#DejaVuSansMono-61" transform="translate(602.050781 0)"/>
      <use xlink:href="#DejaVuSansMono-6e" transform="translate(662.255859 0)"/>
      <use xlink:href="#DejaVuSansMono-63" transform="translate(722.460938 0)"/>
      <use xlink:href="#DejaVuSansMono-65" transform="translate(782.666016 0)"/>
     </g>
    </g>
   </g>
  </g>
 </g>
 <defs>
  <clipPath id="p246195d251">
   <rect x="73.784375" y="80.36" width="892.8" height="554.4"/>
  </clipPath>
 </defs>
</svg>
